<svg width="14" height="11" viewBox="0 0 14 11" fill="none" xmlns="http://www.w3.org/2000/svg">
<path fill-rule="evenodd" clip-rule="evenodd" d="M13.137 4.74291C13.2437 4.84982 13.3037 4.99474 13.3037 5.14583C13.3037 5.29693 13.2437 5.44185 13.137 5.54876L8.57553 10.1102C8.52333 10.1662 8.46038 10.2111 8.39044 10.2423C8.3205 10.2735 8.245 10.2902 8.16844 10.2916C8.09188 10.2929 8.01583 10.2788 7.94484 10.2502C7.87384 10.2215 7.80935 10.1788 7.7552 10.1247C7.70106 10.0705 7.65837 10.006 7.6297 9.93503C7.60102 9.86403 7.58694 9.78799 7.58829 9.71143C7.58964 9.63487 7.6064 9.55937 7.63756 9.48943C7.66872 9.41949 7.71366 9.35654 7.76968 9.30434L11.358 5.71601H0.570215C0.418995 5.71601 0.273967 5.65594 0.167037 5.54901C0.0601082 5.44208 3.62396e-05 5.29705 3.62396e-05 5.14583C3.62396e-05 4.99461 0.0601082 4.84959 0.167037 4.74266C0.273967 4.63573 0.418995 4.57565 0.570215 4.57565H11.358L7.76968 0.987328C7.71366 0.935129 7.66872 0.872181 7.63756 0.802239C7.6064 0.732298 7.58964 0.656796 7.58829 0.580238C7.58694 0.503679 7.60102 0.427633 7.6297 0.356636C7.65837 0.285639 7.70106 0.221145 7.7552 0.167001C7.80935 0.112858 7.87384 0.0701749 7.94484 0.0414979C8.01583 0.0128209 8.09188 -0.00126204 8.16844 8.8737e-05C8.245 0.00143952 8.3205 0.0181963 8.39044 0.04936C8.46038 0.0805237 8.52333 0.125455 8.57553 0.181475L13.137 4.74291Z" fill="black" fill-opacity="0.65"/>
</svg>
