<svg width="19" height="19" viewBox="0 0 19 19" fill="none" xmlns="http://www.w3.org/2000/svg">
<path fill-rule="evenodd" clip-rule="evenodd" d="M15.9846 9.88866C16.0914 9.99557 16.1514 10.1405 16.1514 10.2916C16.1514 10.4427 16.0914 10.5876 15.9846 10.6945L11.4232 15.2559C11.371 15.312 11.308 15.3569 11.2381 15.3881C11.1682 15.4192 11.0927 15.436 11.0161 15.4373C10.9395 15.4387 10.8635 15.4246 10.7925 15.3959C10.7215 15.3672 10.657 15.3246 10.6029 15.2704C10.5487 15.2163 10.506 15.1518 10.4774 15.0808C10.4487 15.0098 10.4346 14.9337 10.4359 14.8572C10.4373 14.7806 10.4541 14.7051 10.4852 14.6352C10.5164 14.5652 10.5613 14.5023 10.6173 14.4501L14.2057 10.8618H3.41787C3.26665 10.8618 3.12162 10.8017 3.01469 10.6948C2.90776 10.5878 2.84769 10.4428 2.84769 10.2916C2.84769 10.1404 2.90776 9.99534 3.01469 9.88841C3.12162 9.78148 3.26665 9.72141 3.41787 9.72141H14.2057L10.6173 6.13308C10.5613 6.08088 10.5164 6.01793 10.4852 5.94799C10.4541 5.87805 10.4373 5.80255 10.4359 5.72599C10.4346 5.64943 10.4487 5.57339 10.4774 5.50239C10.506 5.43139 10.5487 5.3669 10.6029 5.31275C10.657 5.25861 10.7215 5.21593 10.7925 5.18725C10.8635 5.15857 10.9395 5.14449 11.0161 5.14584C11.0927 5.14719 11.1682 5.16395 11.2381 5.19511C11.308 5.22628 11.371 5.27121 11.4232 5.32723L15.9846 9.88866Z" fill="black" fill-opacity="0.65"/>
<path d="M14.2061 9.72095L14.6084 9.3186M14.2061 9.72095L13.6367 10.2913L14.2061 10.8616M14.2061 9.72095L14.6084 9.3186M14.2061 9.72095V8.91821L14.6084 9.3186M14.6084 9.3186L15.5811 10.2913M15.5811 10.2913L14.6084 11.2629M15.5811 10.2913H15.582M15.5811 10.2913L14.2061 8.91626V8.1106L15.0117 8.91528L15.9844 9.88892C16.0911 9.99575 16.1513 10.1403 16.1514 10.2913C16.1514 10.4424 16.0912 10.5877 15.9844 10.6946M14.6084 11.2629L14.2061 10.8616M14.6084 11.2629L14.2061 10.8616M14.6084 11.2629L14.2061 11.6653V10.8616M14.6094 11.2639L14.2061 11.6672V12.4729L15.0117 11.6672M14.6094 11.2639L15.0117 11.6672M14.6094 11.2639L15.0117 11.6672M14.6094 11.2639L15.582 10.2913M15.0117 11.6672L15.9844 10.6946M15.9844 10.6946L15.582 10.2913M15.9844 10.6946L15.582 10.2913" stroke="black" stroke-opacity="0.65" stroke-width="27"/>
</svg>
