<svg width="16" height="20" viewBox="0 0 16 20" fill="none" xmlns="http://www.w3.org/2000/svg">
<g clip-path="url(#clip0_183_1199)">
<path d="M7.84681 0H8.10281C8.19114 0.0646451 9.30541 0.464153 9.49728 0.535741L13.8731 2.18616C14.2998 2.34547 14.7257 2.50725 15.1506 2.67149C15.3255 2.73763 15.8217 2.91182 15.9564 3.00366C15.9319 3.58215 15.9461 4.23388 15.9461 4.81873L15.9464 7.92643C15.9464 8.58667 15.965 9.38164 15.9206 10.0338C15.7973 11.7313 15.2983 13.3795 14.46 14.8578C13.8513 15.9406 13.0817 16.9234 12.178 17.7722C11.106 18.7623 9.73467 19.5443 8.33053 19.9398C8.28244 19.9533 8.20537 19.9715 8.16736 20H7.78227C7.74561 19.9719 6.95108 19.7195 6.82009 19.6695C4.16833 18.6566 2.08234 16.3865 0.945877 13.7834C0.687723 13.1874 0.478461 12.5712 0.320184 11.941C0.193977 11.4582 0.13408 11.0426 0.0674798 10.5505C0.0443914 10.3799 0.0374278 10.1753 0 10.0145V2.97261C0.180092 2.913 0.392155 2.81874 0.575302 2.74998C1.07084 2.56871 1.56442 2.38204 2.05595 2.19002L5.31545 0.962376L7.14106 0.27811C7.26306 0.232219 7.77748 0.0481148 7.84681 0ZM8.00045 17.9208C8.22667 17.8167 8.45817 17.7351 8.68755 17.6359C8.9868 17.5039 9.27781 17.3539 9.55903 17.1866C11.2915 16.1539 12.6788 14.3037 13.3683 12.414C14.0731 10.4822 13.9392 8.79912 13.9395 6.79228L13.9396 5.18131C13.9397 4.94184 13.9507 4.58689 13.9374 4.35469C13.4322 4.1986 12.7529 3.9127 12.2468 3.72149L9.36814 2.642L8.54073 2.32575C8.454 2.29209 8.04438 2.12978 7.97272 2.12181C6.75922 2.56343 5.55673 3.03865 4.34923 3.49673C3.62233 3.7725 2.88667 4.02799 2.16175 4.30931C2.13058 4.3214 2.06202 4.34319 2.04908 4.37324C2.0058 4.47377 2.02084 9.02871 2.03387 9.56667C2.04159 9.88546 2.05614 10.2173 2.09961 10.5328C2.21131 11.3437 2.44788 12.1534 2.76695 12.905C3.03769 13.5428 3.37647 14.1255 3.77367 14.6919C3.96775 14.9686 4.16202 15.2474 4.38253 15.504C5.23041 16.4827 6.29355 17.2487 7.48739 17.741C7.56042 17.7706 7.95308 17.9204 8.00045 17.9208Z" fill="white"/>
<path d="M11.1291 6.47058C11.2457 6.50917 12.4087 7.71668 12.5768 7.88972C12.2868 8.17549 11.982 8.49997 11.6907 8.7933L9.15906 11.3413L7.76683 12.741C7.5062 13.0024 7.18795 13.3063 6.94397 13.5778C6.80322 13.4767 6.36256 13.0078 6.22038 12.8637L4.86069 11.4989L3.98369 10.6159C3.80378 10.4356 3.5758 10.2191 3.41211 10.0288C3.49437 9.91546 3.77294 9.65253 3.87895 9.54022C4.18973 9.21097 4.48486 8.87918 4.83602 8.59181C4.98048 8.70365 5.15027 8.88652 5.28194 9.01956L5.95687 9.70226L6.53555 10.2851C6.65184 10.4019 6.82978 10.5737 6.92703 10.7013C7.1407 10.4416 7.64162 9.9724 7.89952 9.71468L9.50588 8.09396C9.84773 7.75588 10.1865 7.4147 10.5222 7.07044C10.6681 6.9217 10.978 6.59222 11.1291 6.47058Z" fill="white"/>
</g>
<defs>
<clipPath id="clip0_183_1199">
<rect width="16" height="20" fill="white"/>
</clipPath>
</defs>
</svg>
