<svg width="44" height="29" viewBox="0 0 44 29" fill="none" xmlns="http://www.w3.org/2000/svg">
<path d="M40.742 7.30581C41.6104 7.27207 42.6719 7.2409 43.5367 7.33853C43.6964 7.35656 43.7844 7.43257 43.8632 7.5413C43.9649 7.6818 43.9777 7.81049 43.9819 7.9719C43.9931 8.86673 43.9854 9.76872 43.9852 10.6634L43.9845 15.9234L43.9863 20.8824C43.9879 21.7577 44.0518 22.9591 43.8892 23.8234C43.8598 23.9797 43.7761 24.0135 43.6427 24.0702C43.5164 24.0652 43.3251 24.0622 43.206 24.0443L43.3529 24.0222L43.3499 24.0538L43.3949 24.0031C43.0496 23.9025 40.9702 23.9535 40.4413 23.9536L34.8428 23.9535L32.1533 23.9556C31.7961 23.9558 31.3235 23.917 30.9916 23.965L30.9497 24.0038L30.9941 24.0444C34.8512 23.9591 38.7839 24.0743 42.6491 24.0427C42.74 24.042 42.835 24.0681 42.9112 24.1086C41.8679 24.1658 40.2544 24.11 39.1573 24.1194C36.2153 24.1444 33.2411 24.0789 30.2999 24.1334C30.0521 24.3339 28.0136 25.1266 27.5726 25.3203L22.049 27.7599C21.6132 27.9531 19.7921 28.8364 19.4272 28.8855C18.2001 29.0509 15.677 28.9884 14.4483 28.9884L7.10217 28.987L3.13775 28.9872C2.22297 28.987 1.13059 29.0315 0.250542 28.8888C-0.101875 28.6938 0.0205765 26.0744 0.0206223 25.634L0.0219498 20.8218L0.0250626 12.0785C0.0251579 10.746 0.0188828 9.40792 0.0105896 8.07491C0.00843811 7.72282 0.0613022 7.66483 0.251091 7.36364C0.846893 7.25162 2.30593 7.28691 2.96734 7.28718L7.24331 7.28892C7.601 7.28945 8.80231 7.31161 9.06132 7.25241C9.60664 7.12778 10.361 6.91861 10.9194 6.77193L14.5409 5.82677L28.0756 2.38295L32.8251 1.1436C34.1048 0.7987 35.3891 0.405402 36.6904 0.119812C36.9554 0.0616411 37.4486 -0.0545108 37.7065 0.0295264C38.178 0.183134 39.369 3.87971 39.5692 4.41041C39.7213 4.81355 39.9114 5.20647 40.0654 5.60905C40.2842 6.18102 40.4633 6.74906 40.742 7.30581ZM6.50912 10.8C6.5241 11.3226 6.59085 11.9903 6.40161 12.486C5.7955 12.7649 5.1023 12.6795 4.3972 12.6651C4.43847 14.5213 4.36256 16.4041 4.42574 18.2551C5.05365 18.0145 5.66654 17.8079 6.34787 17.69C6.88247 17.5975 7.57741 17.6641 8.06125 17.4537C8.56882 17.2331 9.0228 16.885 9.49216 16.6122C9.78905 16.4397 10.1279 16.3248 10.425 16.1525C11.4478 15.5596 14.6718 13.5585 15.7204 13.3156C16.4924 13.1367 17.1935 13.2197 17.9651 13.3371C18.1251 13.3668 18.3767 13.5128 18.4876 13.4242C19.6353 12.5071 21.0819 11.8981 22.7039 12.1444C25.2185 12.5262 26.6749 14.2446 26.2815 16.3474C25.9157 18.3025 23.5388 19.6517 21.1601 19.2368C20.4549 19.1172 19.7969 18.8538 19.2459 18.4707C18.9148 18.6361 15.9354 20.3729 15.8605 20.5157L15.9075 20.5651C16.3287 20.5952 17.0262 20.5799 17.468 20.5833L21.0704 20.5879L32.0068 20.5859L35.4356 20.5846C36.0859 20.584 36.8572 20.5664 37.4981 20.5991C37.4452 18.6901 37.2714 18.7073 39.5984 18.785L39.5923 14.8875C39.5916 14.2481 39.5591 13.2794 39.6195 12.6706C37.5576 12.6851 37.3783 12.8284 37.4994 11.0631C37.5077 10.9417 37.5769 10.9097 37.4807 10.8085L15.946 10.804L9.63999 10.8026C8.69498 10.8027 7.41373 10.843 6.50912 10.8ZM33.3821 3.47248C33.5749 3.57174 33.8033 3.68331 33.9899 3.78598C34.0979 4.05847 34.3541 4.95633 34.5589 5.07411C34.7974 5.14709 35.948 4.76477 36.3206 4.68793C37.1319 5.48104 37.1403 6.04162 37.5239 6.99068C37.5693 7.10301 37.601 7.18046 37.6208 7.29956C37.8176 7.296 39.0813 7.31596 39.1753 7.28119L39.1839 7.20352C39.1218 7.00515 39.0303 6.86866 38.9562 6.6796C38.4175 5.30585 37.9891 3.88744 37.4201 2.52474C37.2521 2.12247 37.1145 1.77738 36.9676 1.36583C36.7591 1.28012 35.9522 1.49171 35.7343 1.56166C34.1278 2.07763 32.4658 2.40616 30.8352 2.83211L20.3611 5.59473C19.4944 5.82651 18.585 6.0134 17.7032 6.26881C17.0352 6.4623 16.2855 6.51994 15.6091 6.80341C15.3104 6.88956 14.5466 7.06945 14.338 7.21003L14.337 7.26536C14.5153 7.34732 18.7832 7.29453 19.0885 7.21458C22.4824 6.32554 25.8821 5.46824 29.2714 4.56697C30.1062 4.35156 30.9425 4.13974 31.78 3.93148C32.232 3.82294 33.0254 3.70043 33.3821 3.47248ZM36.1109 7.22166C36.0334 6.93982 35.7345 6.13944 35.608 6.13224C34.9247 6.09346 33.5906 6.96599 33.2935 5.85491C33.2167 5.56754 33.1026 5.18363 32.8257 4.90554C31.3525 5.25226 29.9862 5.65472 28.521 6.00659C27.866 6.16387 26.8991 6.45082 26.257 6.55001C26.0093 6.60719 24.2141 7.13694 24.104 7.21534L24.1077 7.28373C24.319 7.3533 34.7301 7.27192 36.0008 7.30699L36.0975 7.26665L36.1109 7.22166ZM20.3919 15.9586C20.4436 16.5435 20.292 17.0475 19.9647 17.5635C20.2893 17.6826 20.8721 17.9917 21.1519 18.045C23.5556 18.5036 25.0767 17.1405 24.9316 15.2502C24.607 14.4446 24.3177 13.9074 23.3636 13.5087C22.6577 13.2205 21.8434 13.1722 21.0949 13.3741C20.7245 13.4748 19.8987 13.8308 19.7011 14.1276C19.6197 14.2498 19.6946 14.3794 19.7599 14.502C20.0752 15.0948 20.2645 15.3034 20.3919 15.9586ZM12.5491 24.0122C13.5735 24.0426 25.5434 24.0419 25.6502 23.9933L16.3414 23.9567C15.3656 23.9569 14.3778 23.9431 13.4046 23.9792C13.2436 23.9852 12.6749 23.9934 12.5491 24.0122ZM8.88711 18.3924C8.05497 18.8862 7.1484 18.6979 6.22693 18.9115C4.01606 19.424 1.81737 21.3144 1.54893 23.2336C1.35456 24.6231 1.52355 26.3703 1.46326 27.8242L11.8495 27.8258L16.0713 27.826C16.865 27.826 17.6435 27.8322 18.4373 27.8052C19.536 27.7678 20.0316 27.3096 20.9231 26.9169L25.4126 24.9825C26.0026 24.7292 26.4082 24.4715 27.0698 24.2253C27.1083 24.1822 27.1423 24.1517 27.1604 24.1002C26.2143 24.0761 24.9428 24.1166 23.9636 24.1171L16.4105 24.1203C15.6768 24.1205 12.378 24.2081 11.9644 23.9661C11.733 23.6868 11.8261 22.1322 11.8465 21.714C11.8728 21.1747 13.4675 20.5041 13.9723 20.1486C15.0341 19.4157 16.2325 18.8408 17.3269 18.1385C17.6634 17.9226 18.0464 17.746 18.3454 17.4925C19.4799 16.5306 18.9938 14.714 17.3078 14.4508C15.7094 14.2013 14.9028 15.0991 13.6522 15.7417C13.0265 16.0633 12.3921 16.4212 11.782 16.764C10.8452 17.3303 9.82387 17.8403 8.88711 18.3924ZM42.5371 8.36463C41.5652 8.40595 40.4338 8.38565 39.4514 8.38618L34.1534 8.38409L18.9136 8.38402L6.97881 8.3833L3.44238 8.37891C2.87823 8.37841 2.02141 8.3972 1.48411 8.36327C1.52387 9.56584 1.47527 10.9678 1.47508 12.1949L1.48264 20.4233C1.84348 19.9936 2.22398 19.6582 2.67942 19.2977C2.75299 19.2394 2.87283 19.1621 2.91365 19.0866C3.10559 18.7321 2.98484 14.1843 2.98373 13.4137C2.98314 12.9643 2.9328 12.4645 3.01837 12.0209C3.07045 11.7512 3.13023 11.539 3.49419 11.487C4.03553 11.4095 4.63665 11.4587 5.18577 11.4633C5.17147 11.0152 5.06771 10.0459 5.42375 9.73092C5.71125 9.62689 8.42475 9.67283 8.93892 9.67309L14.7492 9.67389L32.3957 9.67256L36.2059 9.67181C36.9737 9.67196 37.8292 9.65711 38.5917 9.69411C38.9287 10.2669 38.8289 10.8134 38.8103 11.4561C39.2476 11.4522 40.4964 11.3883 40.8557 11.6155C40.9437 11.6711 41.0208 12.1599 41.0233 12.2949C41.0475 13.6227 41.039 14.9545 41.034 16.2844C41.0304 17.2485 41.0638 18.2523 41.0037 19.2115C40.9953 19.3461 40.9029 19.7538 40.7823 19.8144C40.3688 20.0222 39.2971 19.9462 38.7976 19.9367C38.8186 20.3802 38.9525 21.2507 38.6112 21.5717C38.3798 21.6884 37.4028 21.6826 37.102 21.6828C34.6471 21.6847 32.1921 21.6833 29.7372 21.6827L13.7064 21.6855C13.5182 21.8583 13.4376 21.9241 13.221 22.0746C13.1601 22.3769 13.1596 22.7021 13.15 23.0098C13.6408 22.9768 14.2972 22.994 14.7988 22.9954L17.4184 22.999L26.0635 23.0002L36.8918 22.9987C38.6255 22.9982 40.8495 22.9391 42.5232 23.0124C42.5839 19.5558 42.4972 16.0667 42.5357 12.6089C42.5506 11.2679 42.4699 9.66927 42.5371 8.36463Z" fill="#595959"/>
</svg>
