<svg preserveAspectRatio="none" width="100%" height="100%" overflow="visible" style="display: block;" viewBox="0 0 42 42" fill="none" xmlns="http://www.w3.org/2000/svg">
<g id="Overlay">
<rect width="42" height="42" rx="10" fill="var(--fill-0, #DA1B61)" fill-opacity="0.1"/>
<path id="Icon" d="M28.95 30C26.8667 30 24.8083 29.5458 22.775 28.6375C20.7417 27.7292 18.8917 26.4417 17.225 24.775C15.5583 23.1083 14.2708 21.2583 13.3625 19.225C12.4542 17.1917 12 15.1333 12 13.05C12 12.75 12.1 12.5 12.3 12.3C12.5 12.1 12.75 12 13.05 12H17.1C17.3333 12 17.5417 12.0792 17.725 12.2375C17.9083 12.3958 18.0167 12.5833 18.05 12.8L18.7 16.3C18.7333 16.5667 18.725 16.7917 18.675 16.975C18.625 17.1583 18.5333 17.3167 18.4 17.45L15.975 19.9C16.3083 20.5167 16.7042 21.1125 17.1625 21.6875C17.6208 22.2625 18.125 22.8167 18.675 23.35C19.1917 23.8667 19.7333 24.3458 20.3 24.7875C20.8667 25.2292 21.4667 25.6333 22.1 26L24.45 23.65C24.6 23.5 24.7958 23.3875 25.0375 23.3125C25.2792 23.2375 25.5167 23.2167 25.75 23.25L29.2 23.95C29.4333 24.0167 29.625 24.1375 29.775 24.3125C29.925 24.4875 30 24.6833 30 24.9V28.95C30 29.25 29.9 29.5 29.7 29.7C29.5 29.9 29.25 30 28.95 30V30M15.025 18L16.675 16.35V16.35V16.35L16.25 14V14V14H14.025V14V14C14.1083 14.6833 14.225 15.3583 14.375 16.025C14.525 16.6917 14.7417 17.35 15.025 18V18M23.975 26.95C24.625 27.2333 25.2875 27.4583 25.9625 27.625C26.6375 27.7917 27.3167 27.9 28 27.95V27.95V27.95V25.75V25.75V25.75L25.65 25.275V25.275V25.275L23.975 26.95V26.95M15.025 18V18V18V18V18V18V18V18V18V18V18V18V18M23.975 26.95V26.95V26.95V26.95V26.95V26.95V26.95V26.95V26.95V26.95V26.95V26.95V26.95" fill="var(--fill-0, #DA1B61)"/>
</g>
</svg>
