<svg preserveAspectRatio="none" width="100%" height="100%" overflow="visible" style="display: block;" viewBox="0 0 8.33333 8.33333" fill="none" xmlns="http://www.w3.org/2000/svg">
<g id="Container">
<path id="Icon" d="M4.16667 8.33333C3.59028 8.33333 3.04861 8.22396 2.54167 8.00521C2.03472 7.78646 1.59375 7.48958 1.21875 7.11458C0.84375 6.73958 0.546875 6.29861 0.328125 5.79167C0.109375 5.28472 0 4.74306 0 4.16667C0 3.59028 0.109375 3.04861 0.328125 2.54167C0.546875 2.03472 0.84375 1.59375 1.21875 1.21875C1.59375 0.84375 2.03472 0.546875 2.54167 0.328125C3.04861 0.109375 3.59028 0 4.16667 0C4.74306 0 5.28472 0.109375 5.79167 0.328125C6.29861 0.546875 6.73958 0.84375 7.11458 1.21875C7.48958 1.59375 7.78646 2.03472 8.00521 2.54167C8.22396 3.04861 8.33333 3.59028 8.33333 4.16667C8.33333 4.74306 8.22396 5.28472 8.00521 5.79167C7.78646 6.29861 7.48958 6.73958 7.11458 7.11458C6.73958 7.48958 6.29861 7.78646 5.79167 8.00521C5.28472 8.22396 4.74306 8.33333 4.16667 8.33333V8.33333M4.16667 7.5C5.09722 7.5 5.88542 7.17708 6.53125 6.53125C7.17708 5.88542 7.5 5.09722 7.5 4.16667C7.5 3.23611 7.17708 2.44792 6.53125 1.80208C5.88542 1.15625 5.09722 0.833333 4.16667 0.833333C3.23611 0.833333 2.44792 1.15625 1.80208 1.80208C1.15625 2.44792 0.833333 3.23611 0.833333 4.16667C0.833333 5.09722 1.15625 5.88542 1.80208 6.53125C2.44792 7.17708 3.23611 7.5 4.16667 7.5V7.5M4.16667 4.16667V4.16667V4.16667V4.16667V4.16667V4.16667V4.16667V4.16667V4.16667V4.16667" fill="var(--fill-0, #DA1B61)"/>
</g>
</svg>
