<svg preserveAspectRatio="none" width="100%" height="100%" overflow="visible" style="display: block;" viewBox="0 0 40 44" fill="none" xmlns="http://www.w3.org/2000/svg">
<g id="Overlay">
<rect width="40" height="44" rx="10" fill="var(--fill-0, #DA1B61)" fill-opacity="0.1"/>
<path id="Icon" d="M20 22C20.55 22 21.0208 21.8042 21.4125 21.4125C21.8042 21.0208 22 20.55 22 20C22 19.45 21.8042 18.9792 21.4125 18.5875C21.0208 18.1958 20.55 18 20 18C19.45 18 18.9792 18.1958 18.5875 18.5875C18.1958 18.9792 18 19.45 18 20C18 20.55 18.1958 21.0208 18.5875 21.4125C18.9792 21.8042 19.45 22 20 22V22M20 29.35C22.0333 27.4833 23.5417 25.7875 24.525 24.2625C25.5083 22.7375 26 21.3833 26 20.2C26 18.3833 25.4208 16.8958 24.2625 15.7375C23.1042 14.5792 21.6833 14 20 14C18.3167 14 16.8958 14.5792 15.7375 15.7375C14.5792 16.8958 14 18.3833 14 20.2C14 21.3833 14.4917 22.7375 15.475 24.2625C16.4583 25.7875 17.9667 27.4833 20 29.35V29.35M20 32C17.3167 29.7167 15.3125 27.5958 13.9875 25.6375C12.6625 23.6792 12 21.8667 12 20.2C12 17.7 12.8042 15.7083 14.4125 14.225C16.0208 12.7417 17.8833 12 20 12C22.1167 12 23.9792 12.7417 25.5875 14.225C27.1958 15.7083 28 17.7 28 20.2C28 21.8667 27.3375 23.6792 26.0125 25.6375C24.6875 27.5958 22.6833 29.7167 20 32V32M20 20V20V20V20V20V20V20V20V20V20" fill="var(--fill-0, #DA1B61)"/>
</g>
</svg>
