<svg width="28" height="25" viewBox="0 0 28 25" fill="none" xmlns="http://www.w3.org/2000/svg">
<path d="M12.5 25C10.7708 25 9.14583 24.6719 7.625 24.0156C6.10417 23.3594 4.78125 22.4688 3.65625 21.3438C2.53125 20.2188 1.64062 18.8958 0.984375 17.375C0.328125 15.8542 0 14.2292 0 12.5C0 10.7708 0.328125 9.14583 0.984375 7.625C1.64062 6.10417 2.53125 4.78125 3.65625 3.65625C4.78125 2.53125 6.10417 1.64062 7.625 0.984375C9.14583 0.328125 10.7708 0 12.5 0C13.8542 0 15.1354 0.197917 16.3438 0.59375C17.5521 0.989583 18.6667 1.54167 19.6875 2.25L17.875 4.09375C17.0833 3.59375 16.2396 3.20312 15.3438 2.92188C14.4479 2.64062 13.5 2.5 12.5 2.5C9.72917 2.5 7.36979 3.47396 5.42188 5.42188C3.47396 7.36979 2.5 9.72917 2.5 12.5C2.5 15.2708 3.47396 17.6302 5.42188 19.5781C7.36979 21.526 9.72917 22.5 12.5 22.5C13.1667 22.5 13.8125 22.4375 14.4375 22.3125C15.0625 22.1875 15.6667 22.0104 16.25 21.7812L18.125 23.6875C17.2708 24.1042 16.375 24.4271 15.4375 24.6562C14.5 24.8854 13.5208 25 12.5 25ZM21.25 22.5V18.75H17.5V16.25H21.25V12.5H23.75V16.25H27.5V18.75H23.75V22.5H21.25ZM10.75 18.25L5.4375 12.9375L7.1875 11.1875L10.75 14.75L23.25 2.21875L25 3.96875L10.75 18.25Z" fill="white"/>
</svg>
