<svg width="70" height="70" viewBox="0 0 70 70" fill="none" xmlns="http://www.w3.org/2000/svg">
<rect width="70" height="70" rx="10" fill="#B6C334"/>
<path d="M39.5 50.75H36.125C35.5283 50.75 34.956 50.5129 34.534 50.091C34.1121 49.669 33.875 49.0967 33.875 48.5V42.875H36.125V48.5H39.5V42.875H41.75V38.375C41.75 38.0766 41.6315 37.7905 41.4205 37.5795C41.2095 37.3685 40.9234 37.25 40.625 37.25H30.815L28.565 30.5H21.5C21.2016 30.5 20.9155 30.6185 20.7045 30.8295C20.4935 31.0405 20.375 31.3266 20.375 31.625V38.375H22.625V48.5H27.125V40.625H29.375V48.5C29.375 49.0967 29.1379 49.669 28.716 50.091C28.294 50.5129 27.7217 50.75 27.125 50.75H22.625C22.0283 50.75 21.456 50.5129 21.034 50.091C20.6121 49.669 20.375 49.0967 20.375 48.5V40.625C19.7783 40.625 19.206 40.3879 18.784 39.966C18.3621 39.544 18.125 38.9717 18.125 38.375V31.625C18.1259 30.7302 18.4818 29.8722 19.1145 29.2395C19.7472 28.6068 20.6052 28.2509 21.5 28.25H28.565C29.0371 28.25 29.4972 28.3986 29.8802 28.6746C30.2632 28.9506 30.5497 29.3401 30.6991 29.7879L32.435 35H40.625C41.5198 35.0009 42.3778 35.3568 43.0105 35.9895C43.6432 36.6222 43.9991 37.4802 44 38.375V42.875C44 43.4717 43.7629 44.044 43.341 44.466C42.919 44.8879 42.3467 45.125 41.75 45.125V48.5C41.75 49.0967 41.5129 49.669 41.091 50.091C40.669 50.5129 40.0967 50.75 39.5 50.75ZM48.5 50.75H46.25V38.375H49.625V31.625C49.625 31.3266 49.5065 31.0405 49.2955 30.8295C49.0845 30.6185 48.7984 30.5 48.5 30.5H44V28.25H48.5C49.3948 28.2509 50.2528 28.6068 50.8855 29.2395C51.5182 29.8722 51.8741 30.7302 51.875 31.625V38.375C51.875 38.9717 51.6379 39.544 51.216 39.966C50.794 40.3879 50.2217 40.625 49.625 40.625H48.5V50.75ZM24.875 27.125C23.985 27.125 23.115 26.8611 22.3749 26.3666C21.6349 25.8721 21.0581 25.1693 20.7175 24.3471C20.3769 23.5248 20.2878 22.62 20.4615 21.7471C20.6351 20.8742 21.0637 20.0724 21.693 19.443C22.3224 18.8137 23.1242 18.3851 23.9971 18.2115C24.87 18.0378 25.7748 18.1269 26.5971 18.4675C27.4193 18.8081 28.1221 19.3849 28.6166 20.1249C29.1111 20.865 29.375 21.735 29.375 22.625C29.3735 23.818 28.8989 24.9617 28.0553 25.8053C27.2117 26.6489 26.068 27.1235 24.875 27.125ZM24.875 20.375C24.43 20.375 23.995 20.507 23.625 20.7542C23.255 21.0014 22.9666 21.3528 22.7963 21.764C22.626 22.1751 22.5814 22.6275 22.6682 23.064C22.755 23.5004 22.9693 23.9013 23.284 24.216C23.5987 24.5307 23.9996 24.745 24.436 24.8318C24.8725 24.9186 25.3249 24.874 25.736 24.7037C26.1472 24.5334 26.4986 24.245 26.7458 23.875C26.993 23.505 27.125 23.07 27.125 22.625C27.125 22.0283 26.8879 21.456 26.466 21.034C26.044 20.6121 25.4717 20.375 24.875 20.375ZM45.125 27.125C44.235 27.125 43.365 26.8611 42.6249 26.3666C41.8849 25.8721 41.3081 25.1693 40.9675 24.3471C40.6269 23.5248 40.5378 22.62 40.7115 21.7471C40.8851 20.8742 41.3137 20.0724 41.943 19.443C42.5724 18.8137 43.3742 18.3851 44.2471 18.2115C45.12 18.0378 46.0248 18.1269 46.8471 18.4675C47.6693 18.8081 48.3721 19.3849 48.8666 20.1249C49.3611 20.865 49.625 21.735 49.625 22.625C49.6235 23.818 49.1489 24.9617 48.3053 25.8053C47.4617 26.6489 46.318 27.1235 45.125 27.125ZM45.125 20.375C44.68 20.375 44.245 20.507 43.875 20.7542C43.505 21.0014 43.2166 21.3528 43.0463 21.764C42.876 22.1751 42.8314 22.6275 42.9182 23.064C43.005 23.5004 43.2193 23.9013 43.534 24.216C43.8487 24.5307 44.2496 24.745 44.686 24.8318C45.1225 24.9186 45.5749 24.874 45.986 24.7037C46.3972 24.5334 46.7486 24.245 46.9958 23.875C47.243 23.505 47.375 23.07 47.375 22.625C47.375 22.0283 47.1379 21.456 46.716 21.034C46.294 20.6121 45.7217 20.375 45.125 20.375Z" fill="white"/>
<path d="M37.8125 33.875C37.0337 33.875 36.2725 33.6441 35.6249 33.2114C34.9774 32.7788 34.4727 32.1638 34.1747 31.4443C33.8767 30.7248 33.7987 29.9331 33.9507 29.1693C34.1026 28.4055 34.4776 27.7039 35.0283 27.1533C35.5789 26.6026 36.2805 26.2276 37.0443 26.0757C37.8081 25.9237 38.5998 26.0017 39.3193 26.2997C40.0388 26.5977 40.6538 27.1024 41.0864 27.7499C41.5191 28.3975 41.75 29.1587 41.75 29.9375C41.7488 30.9814 41.3336 31.9823 40.5954 32.7204C39.8573 33.4586 38.8564 33.8738 37.8125 33.875ZM37.8125 28.25C37.4787 28.25 37.1525 28.349 36.875 28.5344C36.5975 28.7198 36.3812 28.9834 36.2535 29.2917C36.1257 29.6001 36.0923 29.9394 36.1574 30.2667C36.2225 30.5941 36.3833 30.8947 36.6193 31.1307C36.8553 31.3667 37.1559 31.5275 37.4833 31.5926C37.8106 31.6577 38.1499 31.6243 38.4583 31.4965C38.7666 31.3688 39.0302 31.1525 39.2156 30.875C39.401 30.5975 39.5 30.2713 39.5 29.9375C39.5 29.4899 39.3222 29.0607 39.0057 28.7443C38.6893 28.4278 38.2601 28.25 37.8125 28.25Z" fill="white"/>
</svg>
