<svg width="16" height="16" viewBox="0 0 16 16" fill="none" xmlns="http://www.w3.org/2000/svg">
<path d="M10.7908 0H13.4743C13.6086 0.04836 13.9921 0.0493623 14.1534 0.0551423C14.6154 0.0716911 15.074 0.107365 15.5351 0.138563C15.6314 0.145073 15.7873 0.14494 15.8531 0.218714C15.8836 0.318242 15.8808 0.466827 15.8911 0.577566C15.9506 1.21405 15.9375 1.86783 15.9408 2.50884L15.9405 4.68166C15.9377 5.15102 15.9405 5.60486 15.9059 6.07294C15.7569 8.09055 15.4184 10.1531 14.465 11.9633C13.4143 13.9585 11.301 15.4839 9.08498 15.8908C8.93802 15.9181 8.53928 15.9528 8.42898 16H7.05002C6.94736 15.963 6.32853 15.8823 6.14806 15.8438C5.34108 15.6694 4.56466 15.3755 3.84441 14.9718C2.12183 13.9955 0.837425 12.3979 0.254003 10.5058C0.186969 10.2926 0.126269 10.0298 0.0850689 9.81025C0.0528059 9.63827 0.0508645 9.48039 0 9.30278V7.52072C0.0426892 7.40255 0.0770714 6.99577 0.113455 6.834C0.263455 6.1722 0.472542 5.48947 0.784289 4.88333C1.33555 3.81152 2.25262 2.69928 3.24434 2.01366C5.12919 0.710528 7.51875 0.271791 9.75997 0.0754809C10.0034 0.05416 10.5879 0.0731909 10.7908 0ZM3.32795 12.0793C3.37803 11.9015 3.72636 11.3145 3.84686 11.1241C5.08533 9.16742 6.79056 7.31453 8.79759 6.13745C8.90972 6.0717 9.52653 5.72247 9.59225 5.71577L9.60006 5.73858C9.48583 5.86811 9.32556 5.98991 9.20162 6.11511C8.93983 6.37953 8.6795 6.64478 8.42587 6.91705C7.15156 8.37378 6.20023 9.65748 5.49317 11.491C5.34692 11.8778 5.21298 12.269 5.09156 12.6642C5.02859 12.8639 4.94309 13.1707 4.86602 13.3547C5.0162 13.4522 5.21156 13.5421 5.37586 13.6166C7.93033 14.7757 10.9964 13.8124 12.5153 11.4684C12.7321 11.1381 12.9165 10.7877 13.066 10.4221C13.748 8.7672 14.0545 6.20636 14.0719 4.40784C14.0743 3.86111 14.0705 3.31437 14.0603 2.76775C14.0535 2.51087 14.0225 2.16889 14.0297 1.92398C13.6243 1.92795 13.2149 1.89713 12.8088 1.90175C12.1412 1.90933 11.4561 1.87966 10.7902 1.91297C10.3138 1.94164 9.80983 1.97041 9.33636 2.02284C7.84725 2.18777 5.85548 2.602 4.57764 3.41584C4.16019 3.68552 3.78255 4.0123 3.45569 4.38667C3.11366 4.77278 2.76422 5.20164 2.52728 5.65252C1.60661 7.40444 1.65805 9.598 2.74428 11.2665C2.92287 11.5408 3.08103 11.8578 3.32795 12.0793Z" fill="white"/>
</svg>
