<svg width="225" height="68" viewBox="0 0 225 68" fill="none" xmlns="http://www.w3.org/2000/svg">
<path d="M4.18 12.3V15.8H8.88V18.02H4.18V21.72H9.48V24H1.38V10.02H9.48V12.3H4.18ZM18.1445 24L15.8645 20.56L13.8445 24H10.8445L14.4645 18.44L10.8045 12.92H13.9645L16.2245 16.34L18.2645 12.92H21.2645L17.6245 18.44L21.3045 24H18.1445ZM22.1053 18.46C22.1053 17.3133 22.3386 16.3133 22.8053 15.46C23.272 14.5933 23.9186 13.9267 24.7453 13.46C25.572 12.98 26.5186 12.74 27.5853 12.74C28.9586 12.74 30.092 13.0867 30.9853 13.78C31.892 14.46 32.4986 15.42 32.8053 16.66H29.7853C29.6253 16.18 29.352 15.8067 28.9653 15.54C28.592 15.26 28.1253 15.12 27.5653 15.12C26.7653 15.12 26.132 15.4133 25.6653 16C25.1986 16.5733 24.9653 17.3933 24.9653 18.46C24.9653 19.5133 25.1986 20.3333 25.6653 20.92C26.132 21.4933 26.7653 21.78 27.5653 21.78C28.6986 21.78 29.4386 21.2733 29.7853 20.26H32.8053C32.4986 21.46 31.892 22.4133 30.9853 23.12C30.0786 23.8267 28.9453 24.18 27.5853 24.18C26.5186 24.18 25.572 23.9467 24.7453 23.48C23.9186 23 23.272 22.3333 22.8053 21.48C22.3386 20.6133 22.1053 19.6067 22.1053 18.46ZM45.1566 18.22C45.1566 18.62 45.1299 18.98 45.0766 19.3H36.9766C37.0432 20.1 37.3232 20.7267 37.8166 21.18C38.3099 21.6333 38.9166 21.86 39.6366 21.86C40.6766 21.86 41.4166 21.4133 41.8566 20.52H44.8766C44.5566 21.5867 43.9432 22.4667 43.0366 23.16C42.1299 23.84 41.0166 24.18 39.6966 24.18C38.6299 24.18 37.6699 23.9467 36.8166 23.48C35.9766 23 35.3166 22.3267 34.8366 21.46C34.3699 20.5933 34.1366 19.5933 34.1366 18.46C34.1366 17.3133 34.3699 16.3067 34.8366 15.44C35.3032 14.5733 35.9566 13.9067 36.7966 13.44C37.6366 12.9733 38.6032 12.74 39.6966 12.74C40.7499 12.74 41.6899 12.9667 42.5166 13.42C43.3566 13.8733 44.0032 14.52 44.4566 15.36C44.9232 16.1867 45.1566 17.14 45.1566 18.22ZM42.2566 17.42C42.2432 16.7 41.9832 16.1267 41.4766 15.7C40.9699 15.26 40.3499 15.04 39.6166 15.04C38.9232 15.04 38.3366 15.2533 37.8566 15.68C37.3899 16.0933 37.1032 16.6733 36.9966 17.42H42.2566ZM50.0003 9.2V24H47.2003V9.2H50.0003ZM55.5667 9.2V24H52.7667V9.2H55.5667ZM68.6331 18.22C68.6331 18.62 68.6065 18.98 68.5531 19.3H60.4531C60.5198 20.1 60.7998 20.7267 61.2931 21.18C61.7865 21.6333 62.3931 21.86 63.1131 21.86C64.1531 21.86 64.8931 21.4133 65.3331 20.52H68.3531C68.0331 21.5867 67.4198 22.4667 66.5131 23.16C65.6065 23.84 64.4931 24.18 63.1731 24.18C62.1065 24.18 61.1465 23.9467 60.2931 23.48C59.4531 23 58.7931 22.3267 58.3131 21.46C57.8465 20.5933 57.6131 19.5933 57.6131 18.46C57.6131 17.3133 57.8465 16.3067 58.3131 15.44C58.7798 14.5733 59.4331 13.9067 60.2731 13.44C61.1131 12.9733 62.0798 12.74 63.1731 12.74C64.2265 12.74 65.1665 12.9667 65.9931 13.42C66.8331 13.8733 67.4798 14.52 67.9331 15.36C68.3998 16.1867 68.6331 17.14 68.6331 18.22ZM65.7331 17.42C65.7198 16.7 65.4598 16.1267 64.9531 15.7C64.4465 15.26 63.8265 15.04 63.0931 15.04C62.3998 15.04 61.8131 15.2533 61.3331 15.68C60.8665 16.0933 60.5798 16.6733 60.4731 17.42H65.7331ZM76.8169 12.76C78.1369 12.76 79.2035 13.18 80.0169 14.02C80.8302 14.8467 81.2369 16.0067 81.2369 17.5V24H78.4369V17.88C78.4369 17 78.2169 16.3267 77.7769 15.86C77.3369 15.38 76.7369 15.14 75.9769 15.14C75.2035 15.14 74.5902 15.38 74.1369 15.86C73.6969 16.3267 73.4769 17 73.4769 17.88V24H70.6769V12.92H73.4769V14.3C73.8502 13.82 74.3235 13.4467 74.8969 13.18C75.4835 12.9 76.1235 12.76 76.8169 12.76ZM87.1595 15.22V20.58C87.1595 20.9533 87.2462 21.2267 87.4195 21.4C87.6062 21.56 87.9129 21.64 88.3395 21.64H89.6395V24H87.8795C85.5195 24 84.3395 22.8533 84.3395 20.56V15.22H83.0195V12.92H84.3395V10.18H87.1595V12.92H89.6395V15.22H87.1595Z" fill="#0F172A"/>
<path d="M10.5 40.5L12.8574 47.7553H20.4861L14.3143 52.2394L16.6717 59.4947L10.5 55.0106L4.32825 59.4947L6.68565 52.2394L0.513906 47.7553H8.1426L10.5 40.5Z" fill="#B6C334"/>
<path d="M37.5 40.5L39.8574 47.7553H47.4861L41.3143 52.2394L43.6717 59.4947L37.5 55.0106L31.3283 59.4947L33.6857 52.2394L27.5139 47.7553H35.1426L37.5 40.5Z" fill="#B6C334"/>
<path d="M64.5 40.5L66.8574 47.7553H74.4861L68.3143 52.2394L70.6717 59.4947L64.5 55.0106L58.3283 59.4947L60.6857 52.2394L54.5139 47.7553H62.1426L64.5 40.5Z" fill="#B6C334"/>
<path d="M91.5 40.5L93.8574 47.7553H101.486L95.3143 52.2394L97.6717 59.4947L91.5 55.0106L85.3283 59.4947L87.6857 52.2394L81.5139 47.7553H89.1426L91.5 40.5Z" fill="#D9D9D9"/>
<path d="M118.5 40.5L120.857 47.7553H128.486L122.314 52.2394L124.672 59.4947L118.5 55.0106L112.328 59.4947L114.686 52.2394L108.514 47.7553H116.143L118.5 40.5Z" fill="#D9D9D9"/>
<path d="M139.94 55.16V52.96L146.48 43.6H149.74V52.72H151.5V55.16H149.74V58H146.94V55.16H139.94ZM147.12 46.6L143.02 52.72H147.12V46.6ZM161.103 39.06L155.703 61.62H152.963L158.363 39.06H161.103ZM172.809 45.84H166.329V49.26C166.609 48.9133 167.009 48.6333 167.529 48.42C168.049 48.1933 168.603 48.08 169.189 48.08C170.256 48.08 171.129 48.3133 171.809 48.78C172.489 49.2467 172.983 49.8467 173.289 50.58C173.596 51.3 173.749 52.0733 173.749 52.9C173.749 54.4333 173.309 55.6667 172.429 56.6C171.563 57.5333 170.323 58 168.709 58C167.189 58 165.976 57.62 165.069 56.86C164.163 56.1 163.649 55.1067 163.529 53.88H166.249C166.369 54.4133 166.636 54.84 167.049 55.16C167.476 55.48 168.016 55.64 168.669 55.64C169.456 55.64 170.049 55.3933 170.449 54.9C170.849 54.4067 171.049 53.7533 171.049 52.94C171.049 52.1133 170.843 51.4867 170.429 51.06C170.029 50.62 169.436 50.4 168.649 50.4C168.089 50.4 167.623 50.54 167.249 50.82C166.876 51.1 166.609 51.4733 166.449 51.94H163.769V43.38H172.809V45.84Z" fill="#0F172A"/>
</svg>
