<svg width="70" height="70" viewBox="0 0 70 70" fill="none" xmlns="http://www.w3.org/2000/svg">
<rect width="70" height="70" rx="10" fill="#B6C334"/>
<path d="M40.4492 43.8022H43.3921V40.8681H44.8635C45.4194 40.8681 45.8854 40.6807 46.2614 40.3058C46.6375 39.9309 46.8255 39.4663 46.8255 38.9121V31.0879C46.8255 30.5337 46.6375 30.0692 46.2614 29.6943C45.8854 29.3193 45.4194 29.1319 44.8635 29.1319H38.9777C38.4219 29.1319 37.9559 29.3193 37.5799 29.6943C37.2038 30.0692 37.0158 30.5337 37.0158 31.0879V38.9121C37.0158 39.4663 37.2038 39.9309 37.5799 40.3058C37.9559 40.6807 38.4219 40.8681 38.9777 40.8681H40.4492V43.8022ZM23.2823 40.8681H26.2252V36.9561H30.1491V40.8681H33.092V29.1319H30.1491V34.022H26.2252V29.1319H23.2823V40.8681ZM39.9587 37.9341V32.066H43.8826V37.9341H39.9587ZM19.3584 50.6483C18.2794 50.6483 17.3556 50.2653 16.5872 49.4992C16.7568 49.6598 15.999 48.0759 15.999 47.0001L15.8115 23.6118C15.8115 22.536 15.8188 21.267 16.5872 20.5009C17.3556 19.7347 18.2794 19.3517 19.3584 19.3517H50.7493C51.8284 19.3517 52.7521 19.7347 53.5206 20.5009C54.289 21.267 54.1827 22.1879 54.1827 23.2638L53.9394 46.8833C53.9394 47.9591 53.9394 49.0816 53.5206 49.4992C52.7521 50.2653 51.8284 50.6483 50.7493 50.6483H19.3584ZM19.3584 47.7143H50.7493V21.7967H19.3584V23.2638V47.7143Z" fill="white"/>
</svg>
