<svg width="17" height="9" viewBox="0 0 17 9" fill="none" xmlns="http://www.w3.org/2000/svg">
<path d="M7.5 8.33333H4.16667C3.01389 8.33333 2.03125 7.92708 1.21875 7.11458C0.40625 6.30208 0 5.31944 0 4.16667C0 3.01389 0.40625 2.03125 1.21875 1.21875C2.03125 0.40625 3.01389 0 4.16667 0H7.5V1.66667H4.16667C3.47222 1.66667 2.88194 1.90972 2.39583 2.39583C1.90972 2.88194 1.66667 3.47222 1.66667 4.16667C1.66667 4.86111 1.90972 5.45139 2.39583 5.9375C2.88194 6.42361 3.47222 6.66667 4.16667 6.66667H7.5V8.33333ZM5 5V3.33333H11.6667V5H5ZM9.16667 8.33333V6.66667H12.5C13.1944 6.66667 13.7847 6.42361 14.2708 5.9375C14.7569 5.45139 15 4.86111 15 4.16667C15 3.47222 14.7569 2.88194 14.2708 2.39583C13.7847 1.90972 13.1944 1.66667 12.5 1.66667H9.16667V0H12.5C13.6528 0 14.6354 0.40625 15.4479 1.21875C16.2604 2.03125 16.6667 3.01389 16.6667 4.16667C16.6667 5.31944 16.2604 6.30208 15.4479 7.11458C14.6354 7.92708 13.6528 8.33333 12.5 8.33333H9.16667Z" fill="black" fill-opacity="0.65"/>
</svg>
