<svg width="35" height="33" viewBox="0 0 35 33" fill="none" xmlns="http://www.w3.org/2000/svg">
<rect width="34.2953" height="33" rx="16.5" fill="#DA1B61"/>
<path d="M17.1484 16.5C17.6984 16.5 18.1693 16.3042 18.5609 15.9125C18.9526 15.5208 19.1484 15.05 19.1484 14.5C19.1484 13.95 18.9526 13.4792 18.5609 13.0875C18.1693 12.6958 17.6984 12.5 17.1484 12.5C16.5984 12.5 16.1276 12.6958 15.7359 13.0875C15.3443 13.4792 15.1484 13.95 15.1484 14.5C15.1484 15.05 15.3443 15.5208 15.7359 15.9125C16.1276 16.3042 16.5984 16.5 17.1484 16.5ZM17.1484 23.85C19.1818 21.9833 20.6901 20.2875 21.6734 18.7625C22.6568 17.2375 23.1484 15.8833 23.1484 14.7C23.1484 12.8833 22.5693 11.3958 21.4109 10.2375C20.2526 9.07917 18.8318 8.5 17.1484 8.5C15.4651 8.5 14.0443 9.07917 12.8859 10.2375C11.7276 11.3958 11.1484 12.8833 11.1484 14.7C11.1484 15.8833 11.6401 17.2375 12.6234 18.7625C13.6068 20.2875 15.1151 21.9833 17.1484 23.85ZM17.1484 26.5C14.4651 24.2167 12.4609 22.0958 11.1359 20.1375C9.81094 18.1792 9.14844 16.3667 9.14844 14.7C9.14844 12.2 9.9526 10.2083 11.5609 8.725C13.1693 7.24167 15.0318 6.5 17.1484 6.5C19.2651 6.5 21.1276 7.24167 22.7359 8.725C24.3443 10.2083 25.1484 12.2 25.1484 14.7C25.1484 16.3667 24.4859 18.1792 23.1609 20.1375C21.8359 22.0958 19.8318 24.2167 17.1484 26.5Z" fill="white"/>
</svg>
