<svg width="24" height="24" viewBox="0 0 24 24" fill="none" xmlns="http://www.w3.org/2000/svg">
<path fill-rule="evenodd" clip-rule="evenodd" d="M7.5 4.5V3H9V4.5H12V6H10.9635L9.054 9.819L10.98 11.424L10.02 12.576L8.091 10.9695L5.781 13.2795L4.719 12.219L6.9345 10.005L5.52 8.826L6.48 7.674L7.8705 8.832L9.285 6H4.5V4.5H7.5ZM17.25 6H14.25V4.5H17.25C17.8467 4.5 18.419 4.73705 18.841 5.15901C19.2629 5.58097 19.5 6.15326 19.5 6.75V9.75H18V6.75C18 6.55109 17.921 6.36032 17.7803 6.21967C17.6397 6.07902 17.4489 6 17.25 6ZM17.205 11.745L16.5 12L15.795 11.745L16.5 9.8055L17.205 11.745ZM18.0705 18.75C18.1585 19.016 18.2405 19.268 18.3165 19.506C18.456 19.941 18.57 20.3145 18.648 20.598C18.687 20.739 18.7155 20.851 18.7335 20.934L18.75 21.024V21H20.25C20.25 20.865 20.2215 20.7195 20.199 20.6175C20.168 20.4765 20.133 20.3365 20.094 20.1975C19.9853 19.8123 19.8693 19.4293 19.746 19.0485C19.4121 18.0195 19.066 16.9944 18.708 15.9735C18.2578 14.6798 17.7998 13.3887 17.334 12.1005L17.205 11.745L16.5 12L15.795 11.745L15.666 12.1005C15.2009 13.3885 14.7429 14.679 14.292 15.972C13.9339 16.9934 13.5879 18.019 13.254 19.0485C13.1307 19.4298 13.0147 19.8133 12.906 20.199C12.867 20.3375 12.832 20.477 12.801 20.6175C12.7714 20.743 12.7543 20.8711 12.75 21H14.25V21.024L14.2665 20.934C14.2835 20.851 14.312 20.739 14.352 20.598C14.43 20.313 14.544 19.9425 14.682 19.506L14.9295 18.75H18.0705ZM17.5635 17.25C17.2163 16.237 16.8618 15.2264 16.5 14.2185C16.1406 15.2273 15.7861 16.2378 15.4365 17.25H17.5635ZM4.5 17.25V15H6V17.25C6 17.4489 6.07902 17.6397 6.21967 17.7803C6.36032 17.921 6.55109 18 6.75 18H10.5V19.5H6.75C6.15326 19.5 5.58097 19.2629 5.15901 18.841C4.73705 18.419 4.5 17.8467 4.5 17.25Z" fill="black" fill-opacity="0.65"/>
</svg>
