<svg width="138" height="40" viewBox="0 0 138 40" fill="none" xmlns="http://www.w3.org/2000/svg">
<rect x="0.5" y="0.5" width="137" height="39" rx="9.5" stroke="black" stroke-opacity="0.15"/>
<path d="M17.9997 27.9167C20.0993 27.9167 22.1129 27.0826 23.5976 25.5979C25.0823 24.1133 25.9163 22.0996 25.9163 20C25.9163 17.9004 25.0823 15.8867 23.5976 14.4021C22.1129 12.9174 20.0993 12.0833 17.9997 12.0833C15.9 12.0833 13.8864 12.9174 12.4017 14.4021C10.9171 15.8867 10.083 17.9004 10.083 20C10.083 22.0996 10.9171 24.1133 12.4017 25.5979C13.8864 27.0826 15.9 27.9167 17.9997 27.9167Z" stroke="#595959" stroke-width="1.5" stroke-linecap="round" stroke-linejoin="round"/>
<path d="M10.083 20H25.9163M17.9997 27.9167C19.943 27.9167 21.518 24.3725 21.518 20C21.518 15.6275 19.943 12.0833 17.9997 12.0833C16.0563 12.0833 14.4813 15.6275 14.4813 20C14.4813 24.3725 16.0563 27.9167 17.9997 27.9167Z" stroke="#595959" stroke-width="1.5" stroke-linecap="round" stroke-linejoin="round"/>
<path d="M34.598 27V12.4545H43.7173V14.3438H36.7926V18.7756H43.2415V20.6577H36.7926V25.1108H43.8026V27H34.598ZM48.6019 20.5227V27H46.4783V16.0909H48.5167V17.8665H48.6516C48.9026 17.2888 49.2956 16.8248 49.8306 16.4744C50.3704 16.1241 51.0498 15.9489 51.869 15.9489C52.6123 15.9489 53.2634 16.1051 53.8221 16.4176C54.3808 16.7254 54.814 17.1847 55.1218 17.7955C55.4296 18.4062 55.5835 19.1615 55.5835 20.0611V27H53.4599V20.3168C53.4599 19.526 53.2539 18.9081 52.842 18.4631C52.43 18.0133 51.8642 17.7884 51.1445 17.7884C50.6521 17.7884 50.2141 17.8949 49.8306 18.108C49.4518 18.321 49.1512 18.6335 48.9286 19.0455C48.7108 19.4527 48.6019 19.9451 48.6019 20.5227ZM63.0053 31.3182C62.1388 31.3182 61.3931 31.2045 60.7681 30.9773C60.1478 30.75 59.6412 30.4493 59.2482 30.0753C58.8552 29.7012 58.5617 29.2917 58.3675 28.8466L60.1928 28.0938C60.3207 28.3021 60.4911 28.5223 60.7042 28.7543C60.922 28.991 61.2156 29.1922 61.5849 29.358C61.9589 29.5237 62.4395 29.6065 63.0266 29.6065C63.8316 29.6065 64.4968 29.41 65.0224 29.017C65.5479 28.6288 65.8107 28.0085 65.8107 27.1562V25.0114H65.6758C65.5479 25.2434 65.3633 25.5014 65.1218 25.7855C64.8851 26.0696 64.5584 26.3158 64.1417 26.5241C63.725 26.7325 63.1829 26.8366 62.5153 26.8366C61.6535 26.8366 60.877 26.6354 60.1857 26.233C59.4992 25.8258 58.9547 25.2268 58.5522 24.4361C58.1545 23.6406 57.9556 22.6629 57.9556 21.5028C57.9556 20.3428 58.1521 19.3485 58.5451 18.5199C58.9428 17.6913 59.4873 17.0568 60.1786 16.6165C60.8699 16.1714 61.6535 15.9489 62.5295 15.9489C63.2066 15.9489 63.7534 16.0625 64.1701 16.2898C64.5868 16.5123 64.9111 16.7727 65.1431 17.071C65.3799 17.3693 65.5621 17.6321 65.69 17.8594H65.8462V16.0909H67.9272V27.2415C67.9272 28.179 67.7094 28.9484 67.2738 29.5497C66.8382 30.151 66.2487 30.5961 65.5053 30.8849C64.7667 31.1738 63.9334 31.3182 63.0053 31.3182ZM62.984 25.0753C63.5948 25.0753 64.1109 24.9332 64.5323 24.6491C64.9585 24.3603 65.2804 23.9484 65.4982 23.4134C65.7208 22.8736 65.832 22.2273 65.832 21.4744C65.832 20.7405 65.7231 20.0942 65.5053 19.5355C65.2875 18.9768 64.9679 18.5412 64.5465 18.2287C64.1251 17.9115 63.6043 17.7528 62.984 17.7528C62.3448 17.7528 61.8121 17.9186 61.386 18.25C60.9599 18.5767 60.6379 19.0218 60.4201 19.5852C60.207 20.1487 60.1005 20.7784 60.1005 21.4744C60.1005 22.1894 60.2094 22.8168 60.4272 23.3565C60.645 23.8963 60.967 24.3177 61.3931 24.6207C61.824 24.9238 62.3543 25.0753 62.984 25.0753ZM72.8988 12.4545V27H70.7752V12.4545H72.8988ZM75.7557 27V16.0909H77.8793V27H75.7557ZM76.8281 14.4077C76.4588 14.4077 76.1416 14.2846 75.8764 14.0384C75.616 13.7874 75.4858 13.4891 75.4858 13.1435C75.4858 12.7931 75.616 12.4948 75.8764 12.2486C76.1416 11.9976 76.4588 11.8722 76.8281 11.8722C77.1974 11.8722 77.5123 11.9976 77.7727 12.2486C78.0379 12.4948 78.1705 12.7931 78.1705 13.1435C78.1705 13.4891 78.0379 13.7874 77.7727 14.0384C77.5123 14.2846 77.1974 14.4077 76.8281 14.4077ZM88.9109 18.7543L86.9862 19.0952C86.9057 18.849 86.7778 18.6146 86.6026 18.392C86.4322 18.1695 86.2002 17.9872 85.9066 17.8452C85.613 17.7031 85.2461 17.6321 84.8058 17.6321C84.2044 17.6321 83.7025 17.767 83.3001 18.0369C82.8976 18.3021 82.6964 18.6454 82.6964 19.0668C82.6964 19.4313 82.8313 19.7249 83.1012 19.9474C83.3711 20.17 83.8067 20.3523 84.408 20.4943L86.141 20.892C87.1448 21.1241 87.8929 21.4815 88.3853 21.9645C88.8777 22.4474 89.1239 23.0748 89.1239 23.8466C89.1239 24.5 88.9345 25.0824 88.5558 25.5938C88.1817 26.1004 87.6585 26.4981 86.9862 26.7869C86.3185 27.0758 85.5444 27.2202 84.6637 27.2202C83.4421 27.2202 82.4454 26.9598 81.6737 26.4389C80.9019 25.9134 80.4284 25.1676 80.2532 24.2017L82.3058 23.8892C82.4336 24.4242 82.6964 24.8291 83.0941 25.1037C83.4918 25.3736 84.0103 25.5085 84.6495 25.5085C85.3455 25.5085 85.9019 25.3641 86.3185 25.0753C86.7352 24.7817 86.9435 24.4242 86.9435 24.0028C86.9435 23.6619 86.8157 23.3755 86.56 23.1435C86.3091 22.9115 85.9232 22.7363 85.4023 22.6179L83.5558 22.2131C82.5378 21.9811 81.7849 21.6117 81.2972 21.1051C80.8143 20.5985 80.5728 19.9569 80.5728 19.1804C80.5728 18.5365 80.7527 17.973 81.1126 17.4901C81.4724 17.0071 81.9696 16.6307 82.604 16.3608C83.2385 16.0862 83.9653 15.9489 84.7844 15.9489C85.9634 15.9489 86.8915 16.2045 87.5685 16.7159C88.2456 17.2225 88.6931 17.902 88.9109 18.7543ZM93.5824 20.5227V27H91.4588V12.4545H93.554V17.8665H93.6889C93.9446 17.2794 94.3352 16.813 94.8608 16.4673C95.3864 16.1217 96.0729 15.9489 96.9205 15.9489C97.6686 15.9489 98.322 16.1027 98.8807 16.4105C99.4441 16.7183 99.8797 17.1776 100.188 17.7884C100.5 18.3944 100.656 19.152 100.656 20.0611V27H98.5327V20.3168C98.5327 19.5166 98.3267 18.8963 97.9148 18.456C97.5028 18.0109 96.9299 17.7884 96.196 17.7884C95.6941 17.7884 95.2443 17.8949 94.8466 18.108C94.4536 18.321 94.1435 18.6335 93.9162 19.0455C93.6937 19.4527 93.5824 19.9451 93.5824 20.5227Z" fill="black" fill-opacity="0.65"/>
<path d="M113.2 17.6L118 22.4L122.8 17.6" stroke="#595959" stroke-width="1.8" stroke-linecap="round" stroke-linejoin="round"/>
</svg>
