<svg width="25" height="19" viewBox="0 0 25 19" fill="none" xmlns="http://www.w3.org/2000/svg">
<path d="M12.5 10.2246L4.90313 17.8215C4.34453 18.3801 3.50664 18.3801 3.00391 17.8215L1.71914 16.5926C1.21641 16.034 1.21641 15.1961 1.71914 14.6934L7.1375 9.33086L1.71914 3.9125C1.21641 3.40977 1.21641 2.57187 1.71914 2.01328L3.00391 0.728515C3.50664 0.225781 4.34453 0.225781 4.90313 0.728515L12.5 8.32539C13.0027 8.88398 13.0027 9.72187 12.5 10.2246ZM23.225 8.32539C23.7277 8.88398 23.7277 9.72187 23.225 10.2246L15.6281 17.8215C15.1254 18.3801 14.2316 18.3801 13.7289 17.8215L12.4441 16.5926C11.9414 16.034 11.9414 15.1961 12.4441 14.6934L17.8625 9.275L12.4441 3.9125C11.9414 3.40977 11.9414 2.51602 12.4441 2.01328L13.7289 0.728515C14.2316 0.225781 15.0695 0.225781 15.6281 0.728515L23.225 8.32539Z" fill="white"/>
</svg>
