<svg width="70" height="70" viewBox="0 0 70 70" fill="none" xmlns="http://www.w3.org/2000/svg">
<rect width="70" height="70" rx="10" fill="#B6C334"/>
<path d="M35 31.8333C29.9856 31.8333 25.7486 36.212 24.3806 41.836C23.7789 44.3092 24.6862 46.9344 26.9131 48.1678C28.6785 49.1455 31.3045 50.0416 35 50.0416C38.6955 50.0416 41.3223 49.1455 43.0877 48.1678C45.3146 46.9344 46.2211 44.3092 45.6194 41.836C44.2514 36.2112 40.0144 31.8333 35 31.8333ZM18.375 30.6015C18.375 32.7881 19.7921 35 21.5417 35C23.2913 35 24.7083 32.7881 24.7083 30.6015C24.7083 28.4149 23.2913 27.0833 21.5417 27.0833C19.7921 27.0833 18.375 28.4157 18.375 30.6015ZM51.625 30.6015C51.625 32.7881 50.2079 35 48.4583 35C46.7088 35 45.2917 32.7881 45.2917 30.6015C45.2917 28.4149 46.7088 27.0833 48.4583 27.0833C50.2079 27.0833 51.625 28.4157 51.625 30.6015ZM26.6875 23.4765C26.6875 25.6631 28.1046 27.875 29.8542 27.875C31.6038 27.875 33.0208 25.6631 33.0208 23.4765C33.0208 21.2899 31.6038 19.9583 29.8542 19.9583C28.1046 19.9583 26.6875 21.2907 26.6875 23.4765ZM43.3125 23.4765C43.3125 25.6631 41.8954 27.875 40.1458 27.875C38.3963 27.875 36.9792 25.6631 36.9792 23.4765C36.9792 21.2899 38.3963 19.9583 40.1458 19.9583C41.8954 19.9583 43.3125 21.2907 43.3125 23.4765Z" stroke="white" stroke-width="1.5" stroke-linecap="round" stroke-linejoin="round"/>
</svg>
