<svg width="25" height="30" viewBox="0 0 25 30" fill="none" xmlns="http://www.w3.org/2000/svg">
<g clip-path="url(#clip0_54_1813)">
<path d="M12.2606 0H12.6606C12.7987 0.0969677 14.5397 0.696229 14.8395 0.803611L21.6767 3.27925C22.3435 3.51821 23.0089 3.76087 23.6728 4.00724C23.9461 4.10644 24.7214 4.36774 24.9319 4.5055C24.8936 5.37323 24.9158 6.35083 24.9158 7.22809L24.9163 11.8896C24.9163 12.88 24.9453 14.0725 24.876 15.0507C24.6833 17.5969 23.9036 20.0693 22.5938 22.2867C21.6426 23.9108 20.4402 25.3851 19.0281 26.6583C17.3531 28.1434 15.2104 29.3165 13.0165 29.9097C12.9413 29.93 12.8209 29.9573 12.7615 30H12.1598C12.1025 29.9578 10.8611 29.5792 10.6564 29.5042C6.51301 27.9849 3.25366 24.5797 1.47793 20.675C1.07457 19.7812 0.747595 18.8569 0.500288 17.9115C0.303088 17.1872 0.2095 16.564 0.105437 15.8257C0.0693616 15.5698 0.058481 15.263 0 15.0218V4.45892C0.281394 4.3695 0.612742 4.22811 0.898909 4.12498C1.67319 3.85307 2.44441 3.57307 3.21243 3.28502L8.3054 1.44356L11.1579 0.417165C11.3485 0.348328 12.1523 0.0721722 12.2606 0ZM12.5007 26.8811C12.8542 26.725 13.2159 26.6026 13.5743 26.4538C14.0419 26.2559 14.4966 26.0309 14.936 25.78C17.643 24.2309 19.8107 21.4556 20.888 18.621C21.9893 15.7232 21.7801 13.1987 21.7805 10.1884L21.7807 7.77196C21.7807 7.41276 21.7979 6.88033 21.7772 6.53203C20.9877 6.2979 19.9264 5.86906 19.1356 5.58224L14.6377 3.963L13.3449 3.48863C13.2094 3.43814 12.5693 3.19467 12.4574 3.18271C10.5613 3.84514 8.6824 4.55797 6.79568 5.24509C5.65989 5.65875 4.51043 6.04198 3.37773 6.46396C3.32903 6.4821 3.2219 6.51479 3.20168 6.55986C3.13406 6.71066 3.15757 13.5431 3.17793 14.35C3.18999 14.8282 3.21272 15.3259 3.28064 15.7992C3.45518 17.0155 3.8248 18.2301 4.32336 19.3575C4.74639 20.3141 5.27573 21.1883 5.89636 22.0378C6.19961 22.4529 6.50315 22.8711 6.8477 23.2561C8.17251 24.7241 9.83367 25.8731 11.699 26.6116C11.8132 26.6559 12.4267 26.8807 12.5007 26.8811Z" fill="#DA1A61"/>
<path d="M17.3878 9.70593C17.5701 9.76381 19.3872 11.5751 19.6499 11.8346C19.1968 12.2633 18.7205 12.75 18.2653 13.19L14.3097 17.012L12.1343 19.1115C11.7271 19.5036 11.2298 19.9595 10.8486 20.3668C10.6287 20.2151 9.94016 19.5117 9.71799 19.2956L7.59348 17.2484L6.22317 15.9239C5.94207 15.6534 5.58584 15.3288 5.33008 15.0432C5.45862 14.8732 5.89387 14.4789 6.05952 14.3104C6.54512 13.8165 7.00625 13.3188 7.55493 12.8878C7.78066 13.0555 8.04595 13.3298 8.25168 13.5294L9.30627 14.5535L10.2104 15.4277C10.3922 15.6029 10.6702 15.8606 10.8221 16.0519C11.156 15.6625 11.9387 14.9587 12.3417 14.5721L14.8516 12.141C15.3857 11.6339 15.9151 11.1221 16.4397 10.6057C16.6676 10.3826 17.1517 9.88839 17.3878 9.70593Z" fill="#DA1A61"/>
</g>
<defs>
<clipPath id="clip0_54_1813">
<rect width="25" height="30" fill="white"/>
</clipPath>
</defs>
</svg>
