<svg width="30" height="19" viewBox="0 0 30 19" fill="none" xmlns="http://www.w3.org/2000/svg">
<path d="M22.3958 12.0938C19.1045 10.6712 17.9167 9.40625 17.9167 5.82292C17.9167 2.23958 20.1562 0 23.7396 0C27.3229 0 29.5625 2.23958 29.5625 5.82292C29.5625 12.0938 27.7708 14.3333 20.6042 18.8125C22.3958 15.6771 22.3958 14.7812 22.3958 12.0938ZM4.47917 12.0938C1.18787 10.6712 0 9.40625 0 5.82292C0 2.23958 2.23958 0 5.82292 0C9.40625 0 11.6458 2.23958 11.6458 5.82292C11.6458 12.0938 9.85417 14.3333 2.6875 18.8125C4.47917 15.6771 4.47917 14.7812 4.47917 12.0938Z" fill="white"/>
</svg>
