<svg width="70" height="70" viewBox="0 0 70 70" fill="none" xmlns="http://www.w3.org/2000/svg">
<rect width="70" height="70" rx="10" fill="#B6C334"/>
<path d="M29.1528 17.0214C30.3925 17.4049 33.6781 18.9263 34.9893 19.4909C36.9153 18.7053 38.8989 17.8228 40.8157 16.9996L44.0845 22.4957C46.0746 22.8856 48.2588 23.4206 50.2535 23.8657L49.6517 30.1907C51.0419 31.8042 52.4442 33.407 53.8594 34.9988C52.4674 36.5155 51.0178 38.2406 49.6517 39.8005L50.2563 46.135L44.0919 47.5136C43.0528 49.0986 41.827 51.3074 40.8361 52.9763C40.3225 52.8514 35.7833 50.8504 35.0042 50.5269C33.275 51.1657 30.92 52.2554 29.176 53.0004L25.9053 47.5123C23.9551 47.1398 21.7078 46.5792 19.7465 46.1407C19.9322 44.0381 20.1328 41.9369 20.3483 39.8372C19.2032 38.3769 17.3952 36.4255 16.1396 34.9887C17.4175 33.6731 19.09 31.632 20.3464 30.2058C20.1152 28.1288 19.9406 25.953 19.7446 23.8655L25.9072 22.4906C26.9909 20.7709 28.1108 18.7862 29.1528 17.0214ZM27.999 25.0001L22.999 26.0001C23.1402 27.5886 22.8347 29.4165 22.999 31.0001C21.9524 32.222 21.0224 33.7647 19.999 35.0001L22.999 39.5001L22.499 44.5001L27.999 45.0001L29.999 49.5001L34.999 47.5001L39.999 49.5001C40.7494 48.4204 41.3332 46.1621 41.999 45.0001L46.999 44.0001C46.869 42.4002 47.1523 40.5981 46.999 39.0001C47.962 37.9057 49.6177 36.1109 50.499 34.9988L46.999 30.9999C47.1625 29.4043 47.3737 27.599 47.499 25.9999L42.499 24.9999L39.999 20.4999C38.5457 21.1139 35.9431 21.8648 34.499 22.5001C33.3856 22.0379 31.0651 20.8579 29.999 20.5001L27.999 25.0001Z" fill="white"/>
<path d="M40.998 30.5001C41.3036 30.7186 42.3978 32.0771 42.7618 32.4596L32.998 42.0001C31.8112 40.8487 30.7145 39.7697 29.5426 38.599C28.7161 37.7481 27.8385 36.8926 26.998 36.0515L28.998 34.5001L32.998 38.5001L40.998 30.5001Z" fill="white"/>
</svg>
