<svg width="382" height="24" viewBox="0 0 382 24" fill="none" xmlns="http://www.w3.org/2000/svg">
<path d="M6.85 17.325L10 15.425L13.15 17.35L12.325 13.75L15.1 11.35L11.45 11.025L10 7.625L8.55 11L4.9 11.325L7.675 13.75L6.85 17.325ZM3.825 21.5L5.45 14.475L0 9.75L7.2 9.125L10 2.5L12.8 9.125L20 9.75L14.55 14.475L16.175 21.5L10 17.775L3.825 21.5Z" fill="#DA1B61"/>
<path d="M34.85 17.325L38 15.425L41.15 17.35L40.325 13.75L43.1 11.35L39.45 11.025L38 7.625L36.55 11L32.9 11.325L35.675 13.75L34.85 17.325ZM31.825 21.5L33.45 14.475L28 9.75L35.2 9.125L38 2.5L40.8 9.125L48 9.75L42.55 14.475L44.175 21.5L38 17.775L31.825 21.5Z" fill="#DA1B61"/>
<path d="M62.85 17.325L66 15.425L69.15 17.35L68.325 13.75L71.1 11.35L67.45 11.025L66 7.625L64.55 11L60.9 11.325L63.675 13.75L62.85 17.325ZM59.825 21.5L61.45 14.475L56 9.75L63.2 9.125L66 2.5L68.8 9.125L76 9.75L70.55 14.475L72.175 21.5L66 17.775L59.825 21.5Z" fill="#DA1B61"/>
<path d="M90.85 17.325L94 15.425L97.15 17.35L96.325 13.75L99.1 11.35L95.45 11.025L94 7.625L92.55 11L88.9 11.325L91.675 13.75L90.85 17.325ZM87.825 21.5L89.45 14.475L84 9.75L91.2 9.125L94 2.5L96.8 9.125L104 9.75L98.55 14.475L100.175 21.5L94 17.775L87.825 21.5Z" fill="#DA1B61"/>
<path d="M118.85 17.325L122 15.425L125.15 17.35L124.325 13.75L127.1 11.35L123.45 11.025L122 7.625L120.55 11L116.9 11.325L119.675 13.75L118.85 17.325ZM115.825 21.5L117.45 14.475L112 9.75L119.2 9.125L122 2.5L124.8 9.125L132 9.75L126.55 14.475L128.175 21.5L122 17.775L115.825 21.5Z" fill="#DA1B61"/>
<path d="M157.619 15.9545V14.017L162.477 6.36364H164.147V9.04545H163.158L160.096 13.892V13.983H166.999V15.9545H157.619ZM163.204 18V15.3636L163.249 14.5057V6.36364H165.556V18H163.204ZM169.857 18.1477C169.482 18.1477 169.16 18.0152 168.891 17.75C168.626 17.4811 168.494 17.1591 168.494 16.7841C168.494 16.4129 168.626 16.0947 168.891 15.8295C169.16 15.5644 169.482 15.4318 169.857 15.4318C170.221 15.4318 170.539 15.5644 170.812 15.8295C171.085 16.0947 171.221 16.4129 171.221 16.7841C171.221 17.0341 171.156 17.2633 171.028 17.4716C170.903 17.6761 170.738 17.8409 170.533 17.9659C170.329 18.0871 170.103 18.1477 169.857 18.1477ZM177.177 6.20455C177.775 6.20455 178.351 6.30492 178.904 6.50568C179.461 6.70644 179.957 7.02652 180.393 7.46591C180.832 7.9053 181.179 8.48864 181.433 9.21591C181.69 9.93939 181.821 10.8277 181.825 11.8807C181.825 12.8693 181.713 13.7519 181.489 14.5284C181.27 15.3011 180.953 15.9583 180.54 16.5C180.128 17.0417 179.629 17.4545 179.046 17.7386C178.463 18.0189 177.811 18.1591 177.092 18.1591C176.315 18.1591 175.629 18.0095 175.035 17.7102C174.44 17.4072 173.961 16.9962 173.597 16.4773C173.237 15.9545 173.02 15.3674 172.944 14.7159H175.37C175.465 15.1402 175.664 15.4697 175.967 15.7045C176.27 15.9356 176.645 16.0511 177.092 16.0511C177.849 16.0511 178.425 15.7216 178.819 15.0625C179.213 14.3996 179.412 13.4924 179.415 12.3409H179.336C179.162 12.6818 178.927 12.9754 178.631 13.2216C178.336 13.464 177.997 13.6515 177.614 13.7841C177.236 13.9167 176.832 13.983 176.404 13.983C175.719 13.983 175.107 13.822 174.569 13.5C174.031 13.178 173.607 12.7348 173.296 12.1705C172.986 11.6061 172.83 10.9621 172.83 10.2386C172.826 9.45833 173.006 8.76326 173.37 8.15341C173.734 7.54356 174.241 7.06629 174.893 6.72159C175.548 6.37311 176.309 6.20076 177.177 6.20455ZM177.194 8.13636C176.811 8.13636 176.47 8.22727 176.171 8.40909C175.876 8.59091 175.641 8.83523 175.467 9.14205C175.296 9.44886 175.213 9.79167 175.217 10.1705C175.217 10.553 175.3 10.8977 175.467 11.2045C175.637 11.5076 175.868 11.75 176.16 11.9318C176.455 12.1098 176.792 12.1989 177.171 12.1989C177.455 12.1989 177.719 12.1458 177.961 12.0398C178.203 11.9337 178.414 11.7879 178.592 11.6023C178.773 11.4129 178.915 11.1951 179.018 10.9489C179.12 10.7027 179.171 10.4413 179.171 10.1648C179.167 9.79735 179.08 9.46023 178.91 9.15341C178.739 8.84659 178.504 8.60038 178.205 8.41477C177.906 8.22917 177.569 8.13636 177.194 8.13636ZM188.62 5.81818L184.87 19.75H182.785L186.535 5.81818H188.62ZM194.013 18.1591C193.21 18.1591 192.495 18.0114 191.866 17.7159C191.241 17.4205 190.745 17.0133 190.377 16.4943C190.01 15.9754 189.818 15.3807 189.803 14.7102H192.19C192.216 15.161 192.406 15.5265 192.758 15.8068C193.11 16.0871 193.529 16.2273 194.013 16.2273C194.4 16.2273 194.741 16.142 195.036 15.9716C195.335 15.7973 195.568 15.5568 195.735 15.25C195.906 14.9394 195.991 14.5833 195.991 14.1818C195.991 13.7727 195.904 13.4129 195.729 13.1023C195.559 12.7917 195.322 12.5492 195.019 12.375C194.716 12.2008 194.37 12.1117 193.979 12.108C193.638 12.108 193.307 12.178 192.985 12.3182C192.667 12.4583 192.419 12.6496 192.241 12.892L190.053 12.5L190.604 6.36364H197.718V8.375H192.633L192.332 11.2898H192.4C192.604 11.0019 192.913 10.7633 193.326 10.5739C193.739 10.3845 194.201 10.2898 194.712 10.2898C195.413 10.2898 196.038 10.4545 196.587 10.7841C197.137 11.1136 197.57 11.5663 197.888 12.142C198.207 12.714 198.364 13.3731 198.36 14.1193C198.364 14.9034 198.182 15.6004 197.815 16.2102C197.451 16.8163 196.942 17.2936 196.286 17.642C195.635 17.9867 194.877 18.1591 194.013 18.1591ZM203.847 18V6.36364H206.268V10.7386H206.342C206.448 10.5038 206.601 10.2652 206.802 10.0227C207.006 9.77652 207.272 9.57197 207.597 9.40909C207.927 9.24242 208.336 9.15909 208.825 9.15909C209.461 9.15909 210.048 9.32576 210.586 9.65909C211.124 9.98864 211.554 10.4867 211.876 11.1534C212.198 11.8163 212.359 12.6477 212.359 13.6477C212.359 14.6212 212.201 15.4432 211.887 16.1136C211.576 16.7803 211.152 17.286 210.614 17.6307C210.08 17.9716 209.482 18.142 208.819 18.142C208.349 18.142 207.95 18.0644 207.62 17.9091C207.294 17.7538 207.027 17.5587 206.819 17.3239C206.611 17.0852 206.451 16.8447 206.342 16.6023H206.234V18H203.847ZM206.217 13.6364C206.217 14.1553 206.289 14.608 206.433 14.9943C206.576 15.3807 206.785 15.6818 207.058 15.8977C207.33 16.1098 207.662 16.2159 208.052 16.2159C208.446 16.2159 208.779 16.108 209.052 15.892C209.325 15.6723 209.531 15.3693 209.671 14.983C209.815 14.5928 209.887 14.1439 209.887 13.6364C209.887 13.1326 209.817 12.6894 209.677 12.3068C209.537 11.9242 209.33 11.625 209.058 11.4091C208.785 11.1932 208.45 11.0852 208.052 11.0852C207.658 11.0852 207.325 11.1894 207.052 11.3977C206.783 11.6061 206.576 11.9015 206.433 12.2841C206.289 12.6667 206.217 13.1174 206.217 13.6364ZM216.462 18.1648C215.906 18.1648 215.409 18.0682 214.974 17.875C214.538 17.678 214.193 17.3883 213.94 17.0057C213.69 16.6193 213.565 16.1383 213.565 15.5625C213.565 15.0777 213.654 14.6705 213.832 14.3409C214.01 14.0114 214.252 13.7462 214.559 13.5455C214.866 13.3447 215.214 13.1932 215.604 13.0909C215.998 12.9886 216.411 12.9167 216.843 12.875C217.351 12.822 217.76 12.7727 218.07 12.7273C218.381 12.678 218.606 12.6061 218.746 12.5114C218.887 12.4167 218.957 12.2765 218.957 12.0909V12.0568C218.957 11.697 218.843 11.4186 218.616 11.2216C218.392 11.0246 218.074 10.9261 217.661 10.9261C217.226 10.9261 216.879 11.0227 216.621 11.2159C216.364 11.4053 216.193 11.6439 216.11 11.9318L213.871 11.75C213.985 11.2197 214.209 10.7614 214.542 10.375C214.875 9.98485 215.305 9.68561 215.832 9.47727C216.362 9.26515 216.976 9.15909 217.673 9.15909C218.157 9.15909 218.621 9.21591 219.065 9.32955C219.512 9.44318 219.907 9.61932 220.252 9.85795C220.601 10.0966 220.875 10.4034 221.076 10.7784C221.277 11.1496 221.377 11.5947 221.377 12.1136V18H219.082V16.7898H219.013C218.873 17.0625 218.686 17.303 218.451 17.5114C218.216 17.7159 217.934 17.8769 217.604 17.9943C217.275 18.108 216.894 18.1648 216.462 18.1648ZM217.156 16.4943C217.512 16.4943 217.826 16.4242 218.099 16.2841C218.371 16.1402 218.585 15.947 218.741 15.7045C218.896 15.4621 218.974 15.1875 218.974 14.8807V13.9545C218.898 14.0038 218.794 14.0492 218.661 14.0909C218.532 14.1288 218.387 14.1648 218.224 14.1989C218.061 14.2292 217.898 14.2576 217.735 14.2841C217.572 14.3068 217.424 14.3277 217.292 14.3466C217.008 14.3883 216.76 14.4545 216.548 14.5455C216.335 14.6364 216.171 14.7595 216.053 14.9148C215.936 15.0663 215.877 15.2557 215.877 15.483C215.877 15.8125 215.996 16.0644 216.235 16.2386C216.478 16.4091 216.784 16.4943 217.156 16.4943ZM230.516 11.7614L228.3 11.8977C228.263 11.7083 228.181 11.5379 228.056 11.3864C227.931 11.2311 227.766 11.108 227.562 11.017C227.361 10.9223 227.121 10.875 226.84 10.875C226.465 10.875 226.149 10.9545 225.891 11.1136C225.634 11.2689 225.505 11.4773 225.505 11.7386C225.505 11.947 225.588 12.1231 225.755 12.267C225.922 12.411 226.208 12.5265 226.613 12.6136L228.192 12.9318C229.041 13.1061 229.674 13.3864 230.09 13.7727C230.507 14.1591 230.715 14.6667 230.715 15.2955C230.715 15.8674 230.547 16.3693 230.21 16.8011C229.876 17.233 229.418 17.5701 228.835 17.8125C228.255 18.0511 227.586 18.1705 226.829 18.1705C225.674 18.1705 224.753 17.9299 224.067 17.4489C223.386 16.964 222.986 16.3049 222.869 15.4716L225.249 15.3466C225.321 15.6989 225.496 15.9678 225.772 16.1534C226.049 16.3352 226.403 16.4261 226.835 16.4261C227.259 16.4261 227.6 16.3447 227.857 16.1818C228.119 16.0152 228.251 15.8011 228.255 15.5398C228.251 15.3201 228.158 15.1402 227.977 15C227.795 14.8561 227.514 14.7462 227.136 14.6705L225.624 14.3693C224.772 14.1989 224.138 13.9034 223.721 13.483C223.308 13.0625 223.102 12.5265 223.102 11.875C223.102 11.3144 223.253 10.8314 223.556 10.4261C223.863 10.0208 224.293 9.70833 224.846 9.48864C225.403 9.26894 226.054 9.15909 226.8 9.15909C227.903 9.15909 228.77 9.39205 229.403 9.85795C230.039 10.3239 230.41 10.9583 230.516 11.7614ZM236.217 18.1705C235.319 18.1705 234.546 17.9886 233.898 17.625C233.254 17.2576 232.758 16.7386 232.41 16.0682C232.061 15.3939 231.887 14.5966 231.887 13.6761C231.887 12.7784 232.061 11.9905 232.41 11.3125C232.758 10.6345 233.249 10.1061 233.881 9.72727C234.518 9.34848 235.264 9.15909 236.12 9.15909C236.696 9.15909 237.232 9.25189 237.728 9.4375C238.228 9.61932 238.664 9.89394 239.035 10.2614C239.41 10.6288 239.701 11.0909 239.91 11.6477C240.118 12.2008 240.222 12.8485 240.222 13.5909V14.2557H232.853V12.7557H237.944C237.944 12.4072 237.868 12.0985 237.717 11.8295C237.565 11.5606 237.355 11.3504 237.086 11.1989C236.821 11.0436 236.512 10.9659 236.16 10.9659C235.792 10.9659 235.467 11.0511 235.183 11.2216C234.902 11.3883 234.683 11.6136 234.523 11.8977C234.364 12.178 234.283 12.4905 234.279 12.8352V14.2614C234.279 14.6932 234.359 15.0663 234.518 15.3807C234.681 15.6951 234.91 15.9375 235.205 16.108C235.501 16.2784 235.851 16.3636 236.256 16.3636C236.525 16.3636 236.772 16.3258 236.995 16.25C237.219 16.1742 237.41 16.0606 237.569 15.9091C237.728 15.7576 237.849 15.572 237.933 15.3523L240.171 15.5C240.058 16.0379 239.825 16.5076 239.472 16.9091C239.124 17.3068 238.673 17.6174 238.12 17.8409C237.571 18.0606 236.936 18.1705 236.217 18.1705ZM245.018 18.142C244.355 18.142 243.754 17.9716 243.217 17.6307C242.683 17.286 242.258 16.7803 241.944 16.1136C241.633 15.4432 241.478 14.6212 241.478 13.6477C241.478 12.6477 241.639 11.8163 241.961 11.1534C242.283 10.4867 242.711 9.98864 243.245 9.65909C243.783 9.32576 244.372 9.15909 245.012 9.15909C245.501 9.15909 245.908 9.24242 246.234 9.40909C246.563 9.57197 246.828 9.77652 247.029 10.0227C247.234 10.2652 247.389 10.5038 247.495 10.7386H247.569V6.36364H249.984V18H247.597V16.6023H247.495C247.381 16.8447 247.22 17.0852 247.012 17.3239C246.808 17.5587 246.54 17.7538 246.211 17.9091C245.885 18.0644 245.487 18.142 245.018 18.142ZM245.785 16.2159C246.175 16.2159 246.504 16.1098 246.773 15.8977C247.046 15.6818 247.254 15.3807 247.398 14.9943C247.546 14.608 247.62 14.1553 247.62 13.6364C247.62 13.1174 247.548 12.6667 247.404 12.2841C247.26 11.9015 247.052 11.6061 246.779 11.3977C246.506 11.1894 246.175 11.0852 245.785 11.0852C245.387 11.0852 245.052 11.1932 244.779 11.4091C244.506 11.625 244.3 11.9242 244.16 12.3068C244.02 12.6894 243.95 13.1326 243.95 13.6364C243.95 14.1439 244.02 14.5928 244.16 14.983C244.304 15.3693 244.51 15.6723 244.779 15.892C245.052 16.108 245.387 16.2159 245.785 16.2159ZM259.62 18.1705C258.737 18.1705 257.974 17.983 257.33 17.608C256.69 17.2292 256.196 16.7027 255.847 16.0284C255.499 15.3504 255.325 14.5644 255.325 13.6705C255.325 12.7689 255.499 11.9811 255.847 11.3068C256.196 10.6288 256.69 10.1023 257.33 9.72727C257.974 9.34848 258.737 9.15909 259.62 9.15909C260.503 9.15909 261.264 9.34848 261.904 9.72727C262.548 10.1023 263.044 10.6288 263.393 11.3068C263.741 11.9811 263.915 12.7689 263.915 13.6705C263.915 14.5644 263.741 15.3504 263.393 16.0284C263.044 16.7027 262.548 17.2292 261.904 17.608C261.264 17.983 260.503 18.1705 259.62 18.1705ZM259.631 16.2955C260.033 16.2955 260.368 16.1818 260.637 15.9545C260.906 15.7235 261.109 15.4091 261.245 15.0114C261.385 14.6136 261.455 14.161 261.455 13.6534C261.455 13.1458 261.385 12.6932 261.245 12.2955C261.109 11.8977 260.906 11.5833 260.637 11.3523C260.368 11.1212 260.033 11.0057 259.631 11.0057C259.226 11.0057 258.885 11.1212 258.609 11.3523C258.336 11.5833 258.129 11.8977 257.989 12.2955C257.853 12.6932 257.785 13.1458 257.785 13.6534C257.785 14.161 257.853 14.6136 257.989 15.0114C258.129 15.4091 258.336 15.7235 258.609 15.9545C258.885 16.1818 259.226 16.2955 259.631 16.2955ZM267.91 12.9545V18H265.489V9.27273H267.796V10.8125H267.898C268.092 10.3049 268.415 9.90341 268.87 9.60795C269.325 9.30871 269.876 9.15909 270.523 9.15909C271.129 9.15909 271.658 9.29167 272.109 9.55682C272.559 9.82197 272.91 10.2008 273.16 10.6932C273.41 11.1818 273.535 11.7652 273.535 12.4432V18H271.114V12.875C271.118 12.3409 270.982 11.9242 270.705 11.625C270.429 11.322 270.048 11.1705 269.563 11.1705C269.237 11.1705 268.95 11.2405 268.7 11.3807C268.453 11.5208 268.26 11.7254 268.12 11.9943C267.984 12.2595 267.914 12.5795 267.91 12.9545ZM279.123 18V16.2273L283.265 12.392C283.617 12.0511 283.913 11.7443 284.151 11.4716C284.394 11.1989 284.577 10.9318 284.702 10.6705C284.827 10.4053 284.89 10.1193 284.89 9.8125C284.89 9.47159 284.812 9.17803 284.657 8.93182C284.502 8.68182 284.29 8.49053 284.021 8.35795C283.752 8.22159 283.447 8.15341 283.106 8.15341C282.75 8.15341 282.439 8.22538 282.174 8.36932C281.909 8.51326 281.704 8.7197 281.56 8.98864C281.416 9.25758 281.344 9.57765 281.344 9.94886H279.009C279.009 9.1875 279.182 8.52652 279.526 7.96591C279.871 7.4053 280.354 6.97159 280.975 6.66477C281.596 6.35795 282.312 6.20455 283.123 6.20455C283.956 6.20455 284.682 6.35227 285.299 6.64773C285.92 6.93939 286.403 7.3447 286.748 7.86364C287.093 8.38258 287.265 8.97727 287.265 9.64773C287.265 10.0871 287.178 10.5208 287.004 10.9489C286.833 11.3769 286.528 11.8523 286.089 12.375C285.649 12.8939 285.03 13.517 284.231 14.2443L282.532 15.9091V15.9886H287.418V18H279.123ZM291.417 15.4886L291.423 12.5852H291.775L294.57 9.27273H297.349L293.593 13.6591H293.019L291.417 15.4886ZM289.224 18V6.36364H291.644V18H289.224ZM294.678 18L292.11 14.1989L293.724 12.4886L297.513 18H294.678ZM301.694 17.3693V9.32386H303.728V17.3693H301.694ZM298.688 14.3636V12.3295H306.734V14.3636H298.688ZM312.817 18V9.27273H315.164V10.7955H315.255C315.414 10.2538 315.681 9.8447 316.056 9.56818C316.431 9.28788 316.863 9.14773 317.352 9.14773C317.473 9.14773 317.603 9.1553 317.744 9.17045C317.884 9.18561 318.007 9.20644 318.113 9.23295V11.3807C317.999 11.3466 317.842 11.3163 317.641 11.2898C317.441 11.2633 317.257 11.25 317.09 11.25C316.734 11.25 316.416 11.3277 316.136 11.483C315.859 11.6345 315.639 11.8466 315.477 12.1193C315.317 12.392 315.238 12.7064 315.238 13.0625V18H312.817ZM322.935 18.1705C322.038 18.1705 321.265 17.9886 320.617 17.625C319.973 17.2576 319.477 16.7386 319.129 16.0682C318.78 15.3939 318.606 14.5966 318.606 13.6761C318.606 12.7784 318.78 11.9905 319.129 11.3125C319.477 10.6345 319.968 10.1061 320.6 9.72727C321.237 9.34848 321.983 9.15909 322.839 9.15909C323.415 9.15909 323.951 9.25189 324.447 9.4375C324.947 9.61932 325.382 9.89394 325.754 10.2614C326.129 10.6288 326.42 11.0909 326.629 11.6477C326.837 12.2008 326.941 12.8485 326.941 13.5909V14.2557H319.572V12.7557H324.663C324.663 12.4072 324.587 12.0985 324.435 11.8295C324.284 11.5606 324.074 11.3504 323.805 11.1989C323.54 11.0436 323.231 10.9659 322.879 10.9659C322.511 10.9659 322.185 11.0511 321.901 11.2216C321.621 11.3883 321.401 11.6136 321.242 11.8977C321.083 12.178 321.002 12.4905 320.998 12.8352V14.2614C320.998 14.6932 321.077 15.0663 321.237 15.3807C321.399 15.6951 321.629 15.9375 321.924 16.108C322.219 16.2784 322.57 16.3636 322.975 16.3636C323.244 16.3636 323.49 16.3258 323.714 16.25C323.937 16.1742 324.129 16.0606 324.288 15.9091C324.447 15.7576 324.568 15.572 324.651 15.3523L326.89 15.5C326.776 16.0379 326.543 16.5076 326.191 16.9091C325.843 17.3068 325.392 17.6174 324.839 17.8409C324.29 18.0606 323.655 18.1705 322.935 18.1705ZM336.423 9.27273L333.371 18H330.644L327.593 9.27273H330.15L331.962 15.517H332.053L333.86 9.27273H336.423ZM337.661 18V9.27273H340.082V18H337.661ZM338.877 8.14773C338.517 8.14773 338.209 8.02841 337.951 7.78977C337.697 7.54735 337.57 7.25758 337.57 6.92045C337.57 6.58712 337.697 6.30114 337.951 6.0625C338.209 5.82008 338.517 5.69886 338.877 5.69886C339.237 5.69886 339.544 5.82008 339.798 6.0625C340.055 6.30114 340.184 6.58712 340.184 6.92045C340.184 7.25758 340.055 7.54735 339.798 7.78977C339.544 8.02841 339.237 8.14773 338.877 8.14773ZM345.998 18.1705C345.1 18.1705 344.327 17.9886 343.68 17.625C343.036 17.2576 342.54 16.7386 342.191 16.0682C341.843 15.3939 341.668 14.5966 341.668 13.6761C341.668 12.7784 341.843 11.9905 342.191 11.3125C342.54 10.6345 343.03 10.1061 343.663 9.72727C344.299 9.34848 345.045 9.15909 345.901 9.15909C346.477 9.15909 347.013 9.25189 347.509 9.4375C348.009 9.61932 348.445 9.89394 348.816 10.2614C349.191 10.6288 349.483 11.0909 349.691 11.6477C349.899 12.2008 350.004 12.8485 350.004 13.5909V14.2557H342.634V12.7557H347.725C347.725 12.4072 347.649 12.0985 347.498 11.8295C347.346 11.5606 347.136 11.3504 346.867 11.1989C346.602 11.0436 346.293 10.9659 345.941 10.9659C345.574 10.9659 345.248 11.0511 344.964 11.2216C344.683 11.3883 344.464 11.6136 344.305 11.8977C344.146 12.178 344.064 12.4905 344.06 12.8352V14.2614C344.06 14.6932 344.14 15.0663 344.299 15.3807C344.462 15.6951 344.691 15.9375 344.987 16.108C345.282 16.2784 345.632 16.3636 346.038 16.3636C346.307 16.3636 346.553 16.3258 346.776 16.25C347 16.1742 347.191 16.0606 347.35 15.9091C347.509 15.7576 347.63 15.572 347.714 15.3523L349.952 15.5C349.839 16.0379 349.606 16.5076 349.254 16.9091C348.905 17.3068 348.454 17.6174 347.901 17.8409C347.352 18.0606 346.718 18.1705 345.998 18.1705ZM353.242 18L350.867 9.27273H353.316L354.668 15.1364H354.748L356.157 9.27273H358.56L359.992 15.1023H360.066L361.396 9.27273H363.839L361.469 18H358.907L357.407 12.5114H357.299L355.799 18H353.242ZM372.391 11.7614L370.175 11.8977C370.138 11.7083 370.056 11.5379 369.931 11.3864C369.806 11.2311 369.641 11.108 369.437 11.017C369.236 10.9223 368.996 10.875 368.715 10.875C368.34 10.875 368.024 10.9545 367.766 11.1136C367.509 11.2689 367.38 11.4773 367.38 11.7386C367.38 11.947 367.463 12.1231 367.63 12.267C367.797 12.411 368.083 12.5265 368.488 12.6136L370.067 12.9318C370.916 13.1061 371.549 13.3864 371.965 13.7727C372.382 14.1591 372.59 14.6667 372.59 15.2955C372.59 15.8674 372.422 16.3693 372.085 16.8011C371.751 17.233 371.293 17.5701 370.71 17.8125C370.13 18.0511 369.461 18.1705 368.704 18.1705C367.549 18.1705 366.628 17.9299 365.942 17.4489C365.261 16.964 364.861 16.3049 364.744 15.4716L367.124 15.3466C367.196 15.6989 367.371 15.9678 367.647 16.1534C367.924 16.3352 368.278 16.4261 368.71 16.4261C369.134 16.4261 369.475 16.3447 369.732 16.1818C369.994 16.0152 370.126 15.8011 370.13 15.5398C370.126 15.3201 370.033 15.1402 369.852 15C369.67 14.8561 369.389 14.7462 369.011 14.6705L367.499 14.3693C366.647 14.1989 366.013 13.9034 365.596 13.483C365.183 13.0625 364.977 12.5265 364.977 11.875C364.977 11.3144 365.128 10.8314 365.431 10.4261C365.738 10.0208 366.168 9.70833 366.721 9.48864C367.278 9.26894 367.929 9.15909 368.675 9.15909C369.778 9.15909 370.645 9.39205 371.278 9.85795C371.914 10.3239 372.285 10.9583 372.391 11.7614Z" fill="#0F172A"/>
</svg>
