<svg width="13" height="16" viewBox="0 0 13 16" fill="none" xmlns="http://www.w3.org/2000/svg">
<g clip-path="url(#clip0_183_1219)">
<path d="M6.13471 0H6.85299C6.92536 0.050462 7.20623 0.146448 7.30721 0.183724L8.15373 0.497151L11.2002 1.64482C11.7787 1.86075 12.4348 2.08754 13 2.32413V7.78893L12.9964 7.8001C12.9542 7.9371 12.9386 8.32738 12.9191 8.48805C12.8765 8.84072 12.813 9.23336 12.724 9.577C12.3714 10.9633 11.713 12.2531 10.7971 13.3519C10.3979 13.8496 9.94302 14.2999 9.44147 14.6942C9.07274 14.9756 8.68183 15.2269 8.27257 15.4454C7.99688 15.5959 7.70457 15.7192 7.41529 15.8408C7.34009 15.8724 7.01366 15.966 6.9704 15.9961H6.01604C5.97389 15.9645 5.53956 15.8252 5.43697 15.7815C5.05138 15.6197 4.67705 15.4323 4.31653 15.2204C4.11336 15.1011 3.90042 14.9542 3.71307 14.8125C1.71826 13.3039 0.342041 10.93 0.0554435 8.44288C0.0406933 8.31487 0.0309334 8.13546 0 8.01626V2.31244C0.14758 2.24479 0.428359 2.14928 0.593531 2.08739L1.68016 1.6781L5.20825 0.351027C5.33543 0.301798 6.07591 0.0439854 6.13471 0ZM1.64844 3.43661L1.64986 6.23255C1.64983 6.65333 1.65011 7.07388 1.65034 7.49513C1.65193 10.4337 3.64708 13.5206 6.50678 14.3953C6.51235 14.397 6.54752 14.3881 6.55346 14.3863C8.41002 13.7141 9.72094 12.4447 10.5888 10.6642C11.0036 9.8132 11.2517 8.83618 11.3294 7.89241C11.3606 7.51375 11.3448 6.95327 11.3448 6.5636L11.3446 4.68347L11.3441 3.87835C11.3438 3.72875 11.3355 3.57058 11.3491 3.42249C11.2537 3.40757 11.0372 3.31624 10.9342 3.27797C10.6456 3.17185 10.3576 3.06386 10.0704 2.95402L8.20447 2.26081C7.65084 2.05072 7.09263 1.84066 6.53716 1.6349C6.50647 1.62354 6.4873 1.61886 6.4545 1.62499C6.33115 1.67672 6.2077 1.73028 6.08259 1.77743C5.06007 2.16274 4.03744 2.55432 3.00984 2.92505C2.71601 3.03172 2.42337 3.14163 2.13199 3.25479C1.98711 3.31042 1.79124 3.39229 1.64844 3.43661Z" fill="white"/>
</g>
<defs>
<clipPath id="clip0_183_1219">
<rect width="13" height="15.9961" fill="white"/>
</clipPath>
</defs>
</svg>
