<svg width="17" height="13" viewBox="0 0 17 13" fill="none" xmlns="http://www.w3.org/2000/svg">
<mask id="path-1-inside-1_54_1805" fill="white">
<path fill-rule="evenodd" clip-rule="evenodd" d="M16.7869 5.99104C16.9234 6.12608 17 6.30914 17 6.5C17 6.69086 16.9234 6.87392 16.7869 7.00896L10.9581 12.7708C10.8914 12.8415 10.811 12.8983 10.7216 12.9377C10.6322 12.977 10.5358 12.9982 10.4379 12.9999C10.3401 13.0016 10.2429 12.9838 10.1522 12.9476C10.0615 12.9114 9.97907 12.8574 9.90988 12.7891C9.84069 12.7207 9.78615 12.6392 9.74951 12.5495C9.71286 12.4598 9.69486 12.3638 9.69659 12.2671C9.69832 12.1704 9.71973 12.075 9.75955 11.9866C9.79937 11.8983 9.85679 11.8188 9.92837 11.7528L14.5137 7.22023H0.728598C0.535362 7.22023 0.35004 7.14435 0.2134 7.00928C0.0767612 6.87421 0 6.69102 0 6.5C0 6.30898 0.0767612 6.12579 0.2134 5.99072C0.35004 5.85566 0.535362 5.77977 0.728598 5.77977H14.5137L9.92837 1.24715C9.85679 1.18122 9.79937 1.1017 9.75955 1.01335C9.71973 0.925007 9.69832 0.829637 9.69659 0.732932C9.69486 0.636226 9.71286 0.540168 9.74951 0.450487C9.78615 0.360807 9.84069 0.279341 9.90988 0.210949C9.97907 0.142558 10.0615 0.0886419 10.1522 0.0524184C10.2429 0.0161948 10.3401 -0.00159416 10.4379 0.000112089C10.5358 0.00181834 10.6322 0.0229848 10.7216 0.0623495C10.811 0.101714 10.8914 0.15847 10.9581 0.229232L16.7869 5.99104Z"/>
</mask>
<path fill-rule="evenodd" clip-rule="evenodd" d="M16.7869 5.99104C16.9234 6.12608 17 6.30914 17 6.5C17 6.69086 16.9234 6.87392 16.7869 7.00896L10.9581 12.7708C10.8914 12.8415 10.811 12.8983 10.7216 12.9377C10.6322 12.977 10.5358 12.9982 10.4379 12.9999C10.3401 13.0016 10.2429 12.9838 10.1522 12.9476C10.0615 12.9114 9.97907 12.8574 9.90988 12.7891C9.84069 12.7207 9.78615 12.6392 9.74951 12.5495C9.71286 12.4598 9.69486 12.3638 9.69659 12.2671C9.69832 12.1704 9.71973 12.075 9.75955 11.9866C9.79937 11.8983 9.85679 11.8188 9.92837 11.7528L14.5137 7.22023H0.728598C0.535362 7.22023 0.35004 7.14435 0.2134 7.00928C0.0767612 6.87421 0 6.69102 0 6.5C0 6.30898 0.0767612 6.12579 0.2134 5.99072C0.35004 5.85566 0.535362 5.77977 0.728598 5.77977H14.5137L9.92837 1.24715C9.85679 1.18122 9.79937 1.1017 9.75955 1.01335C9.71973 0.925007 9.69832 0.829637 9.69659 0.732932C9.69486 0.636226 9.71286 0.540168 9.74951 0.450487C9.78615 0.360807 9.84069 0.279341 9.90988 0.210949C9.97907 0.142558 10.0615 0.0886419 10.1522 0.0524184C10.2429 0.0161948 10.3401 -0.00159416 10.4379 0.000112089C10.5358 0.00181834 10.6322 0.0229848 10.7216 0.0623495C10.811 0.101714 10.8914 0.15847 10.9581 0.229232L16.7869 5.99104Z" fill="white"/>
<path d="M16.7869 5.99104L35.7801 -13.199L35.7741 -13.2049L35.7682 -13.2109L16.7869 5.99104ZM16.7869 7.00896L35.7682 26.2109L35.7741 26.205L35.7801 26.199L16.7869 7.00896ZM10.9581 12.7708L-8.02311 -6.43112L-8.36202 -6.09611L-8.68889 -5.74934L10.9581 12.7708ZM9.92837 11.7528L28.2207 31.6121L28.571 31.2895L28.9096 30.9547L9.92837 11.7528ZM14.5137 7.22023L33.4949 26.4221L80.2339 -19.7798H14.5137L14.5137 7.22023ZM14.5137 5.77977L14.5137 32.7798H80.2339L33.4949 -13.4221L14.5137 5.77977ZM9.92837 1.24715L28.9096 -17.9547L28.571 -18.2895L28.2207 -18.6121L9.92837 1.24715ZM10.9581 0.229232L-8.68889 18.7493L-8.36202 19.0961L-8.02311 19.4311L10.9581 0.229232ZM16.7869 5.99104L-2.20626 25.1811C-7.16001 20.2782 -10 13.5654 -10 6.5H17H44C44 -0.947154 41.0067 -8.02604 35.7801 -13.199L16.7869 5.99104ZM17 6.5H-10C-10 -0.565433 -7.16001 -7.2782 -2.20626 -12.1811L16.7869 7.00896L35.7801 26.199C41.0067 21.026 44 13.9472 44 6.5H17ZM16.7869 7.00896L-2.19431 -12.1929L-8.02311 -6.43112L10.9581 12.7708L29.9394 31.9727L35.7682 26.2109L16.7869 7.00896ZM10.9581 12.7708L-8.68889 -5.74934C-6.26688 -8.31873 -3.36354 -10.3615 -0.161594 -11.7718L10.7216 12.9377L21.6048 37.6471C24.9855 36.1581 28.0497 34.0018 30.6051 31.2909L10.9581 12.7708ZM10.7216 12.9377L-0.161594 -11.7718C3.03991 -13.1819 6.48382 -13.9353 9.96709 -13.996L10.4379 12.9999L10.9088 39.9958C14.5877 39.9316 18.2246 39.1359 21.6048 37.6471L10.7216 12.9377ZM10.4379 12.9999L9.96709 -13.996C13.4504 -14.0568 16.9173 -13.4239 20.1641 -12.1276L10.1522 12.9476L0.140331 38.0227C3.56858 39.3915 7.22984 40.0599 10.9088 39.9958L10.4379 12.9999ZM10.1522 12.9476L20.1641 -12.1276C23.4115 -10.8309 26.3823 -8.8928 28.8911 -6.41284L9.90988 12.7891L-9.07135 31.9909C-6.42419 34.6077 -3.28853 36.6537 0.140331 38.0227L10.1522 12.9476ZM9.90988 12.7891L28.8911 -6.41284C31.4007 -3.93211 33.3967 -0.959368 34.7435 2.33668L9.74951 12.5495L-15.2445 22.7623C-13.8244 26.2378 -11.7193 29.3734 -9.07135 31.9909L9.90988 12.7891ZM9.74951 12.5495L34.7435 2.33668C36.0905 5.63332 36.7561 9.17557 36.6923 12.7489L9.69659 12.2671L-17.2991 11.7852C-17.3663 15.552 -16.6648 19.2863 -15.2445 22.7623L9.74951 12.5495ZM9.69659 12.2671L36.6923 12.7489C36.6285 16.3221 35.8371 19.8371 34.3745 23.0818L9.75955 11.9866L-14.8554 0.891495C-16.3976 4.31285 -17.2319 8.01862 -17.2991 11.7852L9.69659 12.2671ZM9.75955 11.9866L34.3745 23.0818C32.9123 26.3258 30.8139 29.2236 28.2207 31.6121L9.92837 11.7528L-8.364 -8.10638C-11.1003 -5.58598 -13.3136 -2.52917 -14.8554 0.891495L9.75955 11.9866ZM9.92837 11.7528L28.9096 30.9547L33.4949 26.4221L14.5137 7.22023L-4.46754 -11.9817L-9.05286 -7.44905L9.92837 11.7528ZM14.5137 7.22023L14.5137 -19.7798H0.728598V7.22023L0.728598 34.2202H14.5137L14.5137 7.22023ZM0.728598 7.22023V-19.7798C7.59617 -19.7798 14.2444 -17.0859 19.1946 -12.1926L0.2134 7.00928L-18.7678 26.2112C-13.5444 31.3746 -6.52544 34.2202 0.728598 34.2202L0.728598 7.22023ZM0.2134 7.00928L19.1946 -12.1926C24.1554 -7.28884 27 -0.571154 27 6.5H0H-27C-27 13.9532 -24.0019 21.0373 -18.7678 26.2112L0.2134 7.00928ZM0 6.5H27C27 13.5712 24.1554 20.2888 19.1946 25.1926L0.2134 5.99072L-18.7678 -13.2112C-24.0019 -8.03725 -27 -0.953186 -27 6.5H0ZM0.2134 5.99072L19.1946 25.1926C14.2444 30.0859 7.59617 32.7798 0.728598 32.7798L0.728598 5.77977V-21.2202C-6.52544 -21.2202 -13.5444 -18.3746 -18.7678 -13.2112L0.2134 5.99072ZM0.728598 5.77977L0.728598 32.7798H14.5137L14.5137 5.77977L14.5137 -21.2202H0.728598V5.77977ZM14.5137 5.77977L33.4949 -13.4221L28.9096 -17.9547L9.92837 1.24715L-9.05286 20.449L-4.46754 24.9817L14.5137 5.77977ZM9.92837 1.24715L28.2207 -18.6121C30.8139 -16.2235 32.9123 -13.3257 34.3745 -10.0818L9.75955 1.01335L-14.8554 12.1085C-13.3136 15.5291 -11.1003 18.586 -8.364 21.1064L9.92837 1.24715ZM9.75955 1.01335L34.3745 -10.0818C35.837 -6.83719 36.6285 -3.32217 36.6923 0.251087L9.69659 0.732932L-17.2991 1.21478C-17.2319 4.98144 -16.3976 8.6872 -14.8554 12.1085L9.75955 1.01335ZM9.69659 0.732932L36.6923 0.251087C36.7561 3.82438 36.0905 7.36663 34.7435 10.6633L9.74951 0.450487L-15.2445 -9.76235C-16.6648 -6.2863 -17.3663 -2.55193 -17.2991 1.21478L9.69659 0.732932ZM9.74951 0.450487L34.7435 10.6633C33.3966 13.9594 31.4007 16.9321 28.8911 19.4128L9.90988 0.210949L-9.07135 -18.9909C-11.7193 -16.3735 -13.8243 -13.2378 -15.2445 -9.76235L9.74951 0.450487ZM9.90988 0.210949L28.8911 19.4128C26.3823 21.8929 23.4114 23.831 20.1641 25.1276L10.1522 0.0524184L0.140331 -25.0227C-3.28846 -23.6537 -6.42414 -21.6077 -9.07135 -18.9909L9.90988 0.210949ZM10.1522 0.0524184L20.1641 25.1276C16.9173 26.4239 13.4504 27.0568 9.96709 26.996L10.4379 0.000112089L10.9088 -26.9958C7.22975 -27.0599 3.5685 -26.3915 0.140331 -25.0227L10.1522 0.0524184ZM10.4379 0.000112089L9.96709 26.996C6.48374 26.9353 3.03984 26.1818 -0.161594 24.7718L10.7216 0.0623495L21.6048 -24.6471C18.2246 -26.1359 14.5878 -26.9316 10.9088 -26.9958L10.4379 0.000112089ZM10.7216 0.0623495L-0.161594 24.7718C-3.36361 23.3615 -6.26693 21.3187 -8.68889 18.7493L10.9581 0.229232L30.6051 -18.2909C28.0498 -21.0017 24.9856 -23.158 21.6048 -24.6471L10.7216 0.0623495ZM10.9581 0.229232L-8.02311 19.4311L-2.19431 25.1929L16.7869 5.99104L35.7682 -13.2109L29.9394 -18.9727L10.9581 0.229232Z" fill="white" mask="url(#path-1-inside-1_54_1805)"/>
</svg>
