<svg width="15" height="15" viewBox="0 0 15 15" fill="none" xmlns="http://www.w3.org/2000/svg">
<path d="M1.66667 14.1667C1.20833 14.1667 0.815972 14.0035 0.489583 13.6771C0.163194 13.3507 0 12.9583 0 12.5C0 12.0417 0.163194 11.6493 0.489583 11.3229C0.815972 10.9965 1.20833 10.8333 1.66667 10.8333C2.125 10.8333 2.51736 10.9965 2.84375 11.3229C3.17014 11.6493 3.33333 12.0417 3.33333 12.5C3.33333 12.9583 3.17014 13.3507 2.84375 13.6771C2.51736 14.0035 2.125 14.1667 1.66667 14.1667ZM11.6667 14.1667C11.6667 12.5417 11.3611 11.0243 10.75 9.61458C10.1389 8.20486 9.30556 6.97222 8.25 5.91667C7.19444 4.86111 5.96181 4.02778 4.55208 3.41667C3.14236 2.80556 1.625 2.5 0 2.5V0C1.97222 0 3.8125 0.368056 5.52083 1.10417C7.22917 1.84028 8.72917 2.85417 10.0208 4.14583C11.3125 5.4375 12.3264 6.9375 13.0625 8.64583C13.7986 10.3542 14.1667 12.1944 14.1667 14.1667H11.6667ZM6.66667 14.1667C6.66667 13.2361 6.49306 12.3715 6.14583 11.5729C5.79861 10.7743 5.31944 10.0694 4.70833 9.45833C4.09722 8.84722 3.39236 8.36806 2.59375 8.02083C1.79514 7.67361 0.930556 7.5 0 7.5V5C1.27778 5 2.46875 5.23958 3.57292 5.71875C4.67708 6.19792 5.64583 6.85417 6.47917 7.6875C7.3125 8.52083 7.96875 9.48958 8.44792 10.5938C8.92708 11.6979 9.16667 12.8889 9.16667 14.1667H6.66667Z" fill="black" fill-opacity="0.65"/>
</svg>
